<?xml version="1.0" encoding="UTF-8"?>
<svg width="1756px" height="1126px" viewBox="0 0 1756 1126" version="1.1" xmlns="http://www.w3.org/2000/svg" xmlns:xlink="http://www.w3.org/1999/xlink">
    <!-- Generator: Sketch 52.6 (67491) - http://www.bohemiancoding.com/sketch -->
    <title>mdpi/Group 167</title>
    <desc>Created with Sketch.</desc>
    <defs>
        <polygon id="path-1" points="0.732747591 1228 1773.72814 1228 1773.72814 0 0.732747591 0 0.732747591 453.853258"></polygon>
    </defs>
    <g id="Welcome" stroke="none" stroke-width="1" fill="none" fill-rule="evenodd">
        <g id="Artboard" transform="translate(-18.000000, -14.000000)">
            <g id="Group-167" transform="translate(18.000000, 14.000000)">
                <path d="M1596,993.5 C1596,1002.06082 1487.20526,1009 1352.99882,1009 C1218.7971,1009 1110,1002.06082 1110,993.5 C1110,984.939184 1218.7971,978 1352.99882,978 C1487.20526,978 1596,984.939184 1596,993.5" id="Fill-1" fill="#3295DD"></path>
                <g id="Group-71">
                    <path d="M1586.60692,588.404305 L1554.53225,588.404305 L1554.53225,664.284881 L1534.0506,685.566121 L1534.0506,661.475217 L1473.76403,661.475217 L1473.76403,753.818361 L1435.89049,753.818361 L1435.89049,710.509257 L1384.1072,710.509257 L1384.1072,542.634289 L1347.0185,542.634289 L1347.0185,602.054753 L1312.46873,602.054753 L1312.46873,742.024649 L1297.2517,757.831465 L1297.2517,701.124881 L1271.26196,674.126073 L1271.26196,589.207417 L1255.03314,606.070313 L1255.03314,640.599217 L1230.29867,640.599217 L1230.29867,704.032785 L1193.97354,704.032785 L1193.97354,563.591337 L1173.10657,563.591337 L1173.10657,498.470497 L1164.60328,498.470497 L1164.60328,569.132073 L1137.16677,569.132073 L1137.16677,731.736465 L1113.59302,756.227697 L1113.59302,629.358105 L1062.5804,629.358105 L1062.5804,664.687665 L1039.39198,664.687665 L1039.39198,780.382457 C1039.47472,780.846641 1039.51964,781.119257 1039.51964,781.119257 L1639.55092,781.119257 L1639.55092,765.862585 L1639.55092,704.032785 L1639.55092,643.408881 L1586.60692,588.404305 Z" id="Fill-3" fill="#007BBD"></path>
                    <mask id="mask-2" fill="white">
                        <use xlink:href="#path-1"></use>
                    </mask>
                    <g id="Clip-6"></g>
                    <polygon id="Fill-5" fill="#007BBD" mask="url(#mask-2)" points="1372.69077 849.721968 1976.43589 849.721968 1976.43589 -117.276456 1372.69077 -117.276456"></polygon>
                    <polygon id="Fill-7" fill="#007BBD" mask="url(#mask-2)" points="1328.66847 219.212736 1976.43589 219.212736 1976.43589 65.668528 1328.66847 65.668528"></polygon>
                    <polygon id="Fill-8" fill="#3AADFA" mask="url(#mask-2)" points="1429.29187 90.987432 2033.03463 90.987432 2033.03463 39.534232 1429.29187 39.534232"></polygon>
                    <polygon id="Fill-9" fill="#3AADFA" mask="url(#mask-2)" points="1429.29187 186.543024 2033.03463 186.543024 2033.03463 135.089824 1429.29187 135.089824"></polygon>
                    <polygon id="Fill-10" fill="#3AADFA" mask="url(#mask-2)" points="1429.29187 282.101072 2033.03463 282.101072 2033.03463 230.647872 1429.29187 230.647872"></polygon>
                    <polygon id="Fill-11" fill="#3AADFA" mask="url(#mask-2)" points="1429.29187 402.15772 2033.03463 402.15772 2033.03463 350.70452 1429.29187 350.70452"></polygon>
                    <polygon id="Fill-12" fill="#3AADFA" mask="url(#mask-2)" points="1464.66668 478.111976 2068.4118 478.111976 2068.4118 426.658776 1464.66668 426.658776"></polygon>
                    <polygon id="Fill-13" fill="#3AADFA" mask="url(#mask-2)" points="1405.7063 576.118656 2009.45142 576.118656 2009.45142 524.665456 1405.7063 524.665456"></polygon>
                    <path d="M1805.4241,890.051207 L1470.53364,890.051207 C1470.53364,890.051207 1442.23427,747.942135 1483.11245,739.773479 C1523.99063,731.607279 1550.72031,818.178823 1550.72031,818.178823 C1550.72031,818.178823 1516.13035,646.668975 1574.30115,636.867079 C1632.47667,627.067639 1645.05312,741.409175 1645.05312,741.409175 C1645.05312,741.409175 1734.67213,646.668975 1795.99176,710.372703 C1857.30667,774.076431 1788.12912,847.582055 1788.12912,847.582055 C1788.12912,847.582055 1810.14027,826.347479 1830.58172,839.415855 C1851.01845,852.481775 1805.4241,890.051207 1805.4241,890.051207" id="Fill-14" fill="#3295DD" mask="url(#mask-2)"></path>
                    <path d="M1205.61148,848.399903 L870.72102,848.399903 C870.72102,848.399903 842.42165,706.290831 883.299832,698.122175 C924.178013,689.953519 950.905328,776.527519 950.905328,776.527519 C950.905328,776.527519 916.31537,605.015215 974.488531,595.215775 C1032.66406,585.413879 1045.2405,699.757871 1045.2405,699.757871 C1045.2405,699.757871 1134.85951,605.015215 1196.17678,668.721399 C1257.49406,732.422671 1188.3165,805.928295 1188.3165,805.928295 C1188.3165,805.928295 1210.32765,784.696175 1230.76674,797.762095 C1251.20583,810.828015 1205.61148,848.399903 1205.61148,848.399903" id="Fill-15" fill="#3295DD" mask="url(#mask-2)"></path>
                    <path d="M577.917923,-92.7746632 C577.917923,-92.7746632 758.858013,-116.973631 790.171476,-43.7725512 C856.20728,110.589505 992.992693,36.2684888 1063.74466,166.942425 C1134.49427,297.618817 1001.64018,472.395145 1111.69828,616.139913 C1221.75638,759.879769 729.641413,781.116801 693.479399,911.790737 C657.317385,1042.46713 352.300713,826.852433 262.681706,954.262345 C173.065063,1081.6698 64.5790209,1176.41 -7.74500718,1094.73572 C-80.0690353,1013.0639 -31.3282099,-55.2052312 -31.3282099,-55.2052312 L577.917923,-92.7746632 Z" id="Fill-16" fill="#FEFEFE" mask="url(#mask-2)"></path>
                    <path d="M728.854439,-16.8196704 C728.854439,-16.8196704 936.391824,-65.0063904 924.597859,150.608306 C912.808621,366.220546 1142.61956,494.718466 1171.96618,540.99933 C1171.96618,540.99933 1028.36773,485.464258 1028.36773,558.967426 C1028.36773,632.47305 1037.80243,958.344954 745.362208,887.290418 C452.924348,816.233426 582.634327,1009.79815 495.374586,1100.45403 C408.114845,1191.1099 80.3021804,833.38613 -47.0508967,1014.69787 L-47.0508967,-29.0701984 L728.854439,-16.8196704 Z" id="Fill-17" fill="#FEFEFE" mask="url(#mask-2)"></path>
                    <path d="M634.159701,335.541913 C634.859443,334.741257 633.871294,332.484193 631.708239,329.480505 C630.831198,328.264785 629.753216,326.923809 628.526304,325.511609 C630.582978,311.807129 647.556454,295.381401 662.496895,283.401033 C673.314531,291.365841 685.28816,297.230769 697.838603,300.880385 C703.379805,315.442009 696.018328,338.479289 693.349379,345.911145 C687.992569,345.363457 684.089615,345.707297 683.881584,346.918105 C683.60736,348.514505 689.862488,351.009801 697.855151,352.490769 C705.847815,353.971737 712.547373,353.878409 712.821597,352.279553 C712.958708,351.483809 711.464664,350.459657 708.935191,349.452697 C707.925765,349.049913 706.713036,348.652041 705.410476,348.268905 C701.093823,337.921777 706.689396,318.259041 711.996563,304.036345 C723.471389,305.807121 735.21571,305.755545 746.815828,303.837409 C757.047194,320.066657 759.106232,346.350769 759.515203,355.693393 C752.671441,357.928353 748.059289,360.472769 748.413888,362.069169 C748.879595,364.176417 757.8084,363.837489 768.35654,361.312721 C778.902317,358.787953 787.07228,355.032729 786.604209,352.925481 C786.370173,351.871857 784.022728,351.429777 780.412909,351.567313 C778.956689,351.621345 777.290073,351.776073 775.479254,352.016761 C766.01855,342.679049 762.626219,319.685977 761.576606,300.357257 C772.110562,297.080953 782.370296,292.181233 792.010663,285.547577 C794.525952,283.816097 796.92777,281.974097 799.26576,280.078065 C812.504126,285.650729 824.548674,302.349073 828.527276,308.297505 C825.042749,312.558665 823.09009,316.087937 823.929308,316.954905 C825.038021,318.096945 830.574495,314.177169 836.300088,308.199265 C842.025681,302.218905 845.770247,296.444849 844.661534,295.300353 C844.110723,294.728105 842.446472,295.423153 840.210134,297.007273 C839.307088,297.645833 838.307118,298.436665 837.250413,299.340473 C827.55331,297.316729 816.428355,283.870129 808.308036,271.941337 C817.929491,262.313817 825.657387,251.202873 831.380616,239.183209 C848.61886,241.739905 867.102928,252.902425 873.963238,257.374801 C871.833279,264.492289 871.216277,269.880753 872.681953,270.489841 C874.6157,271.290497 879.43352,263.475505 883.445217,253.030137 C887.456915,242.587225 889.142442,233.473009 887.208695,232.672353 C886.241822,232.272025 884.55393,234.025609 882.605999,237.184025 C881.818789,238.463601 880.986664,239.981409 880.142718,241.671137 C868.670256,244.134505 851.275989,236.154961 836.347368,227.178281 C841.957125,211.202001 844.238379,194.081225 842.971278,177.034129 C854.748696,172.004241 869.918444,171.456553 875.790605,171.449185 C877.175905,176.854841 878.856705,180.529017 880.01979,180.307977 C881.554022,180.013257 881.608394,173.052953 880.140354,164.756585 C878.672314,156.462673 876.2374,149.976377 874.700804,150.268641 C873.93487,150.416001 873.535355,152.228529 873.514079,155.043105 C873.506987,156.177777 873.561359,157.481913 873.674831,158.899025 C867.606458,164.967801 854.401189,167.202761 841.924029,167.816761 C839.708967,153.139705 834.824956,138.686145 827.075784,125.244457 C838.862657,114.302977 854.79834,106.573945 861.396246,103.643937 C865.812187,109.518689 869.722233,113.114273 871.038977,112.208009 C872.774149,111.016849 869.336902,102.447865 863.360725,93.0733128 C857.386913,83.6987608 851.136513,77.0675608 849.398978,78.2611768 C848.533756,78.8579848 848.956911,81.2967928 850.346939,84.7622088 C850.90957,86.1621288 851.63768,87.7388808 852.493446,89.4212408 C848.403736,99.4048808 835.070811,108.676281 821.165799,115.980425 C811.116461,101.706153 798.504554,90.4159208 784.436426,82.3062088 C789.923256,67.3540808 799.937134,53.3548808 804.270335,47.6864328 C810.844602,50.6704728 815.929553,51.9033848 816.674211,50.4568008 C817.652904,48.5484888 810.709854,42.7105768 801.161683,37.4154408 C791.613512,32.1203048 783.079494,29.3720408 782.100801,31.2803528 C781.611454,32.2332808 783.10077,34.1710648 785.906831,36.5312808 C787.043912,37.4866648 788.405572,38.5132728 789.930348,39.5693528 C790.875946,50.1276968 783.748504,64.4486328 775.127019,77.4998168 C758.820189,70.0188408 741.009859,66.5509688 723.17589,67.4375848 C720.674784,55.4351128 721.684209,41.8460648 722.27048,36.3077848 C727.594194,35.4752008 731.296209,34.1465048 731.213469,32.9209608 C731.099997,31.3024568 724.445354,30.4772408 716.348675,31.0765048 C708.251996,31.6757688 701.777017,33.4760168 701.888125,35.0920648 C701.944861,35.9025448 703.635116,36.5140888 706.325341,36.8456488 C707.410415,36.9807288 708.663331,37.0666888 710.032084,37.1059848 C714.804987,43.5554408 715.729309,56.0098168 715.19741,68.1375448 C700.788868,69.9107768 686.529257,74.5648968 673.205787,82.2620008 C663.733264,68.7859288 657.929659,50.9529128 655.816249,43.6831528 C661.922445,39.7707448 665.794667,36.1284968 665.073649,34.6720888 C664.123323,32.7465848 655.546753,35.3499448 645.92057,40.4854408 C636.292023,45.6209368 629.256778,51.3409608 630.207103,53.2640088 C630.682266,54.2267608 633.065172,54.0572968 636.530787,53.0036728 C637.927907,52.5812408 639.509419,52.0065368 641.204403,51.3114888 C650.660378,56.8325768 658.277166,72.5608008 663.785272,88.3307768 C649.575305,98.4937048 638.235226,111.407353 630.01562,125.944417 C617.39662,122.071305 604.730341,111.397529 600.096913,107.210049 C602.470363,102.192441 603.529433,98.2751208 602.510551,97.6488408 C601.167803,96.8211688 596.725858,102.032801 592.586505,109.287825 C588.447152,116.542849 586.180082,123.095457 587.52283,123.923129 C588.196568,124.335737 589.640969,123.240361 591.437604,121.133113 C592.156258,120.290705 592.93874,119.251817 593.740134,118.119601 C602.77059,117.645593 615.217018,126.128617 625.460204,134.849873 C619.661327,147.441785 616.051508,160.981713 614.748947,174.806537 C597.215205,177.117633 575.941624,170.798345 568.067161,168.153233 C568.452492,160.709097 567.778753,155.330457 566.216153,155.116785 C564.152387,154.829433 561.32505,163.636649 559.901926,174.781977 C558.478802,185.927305 558.996516,195.193793 561.060283,195.478689 C562.090984,195.621137 563.313169,193.491785 564.454978,189.930585 C564.915957,188.496281 565.362752,186.818833 565.781179,184.974377 C576.86831,179.374697 597.037905,183.316577 614.238325,188.628905 C614.500728,203.394377 617.40844,218.221249 623.117486,232.328513 C613.784438,243.906097 593.541558,250.082937 586.579597,251.922481 C583.960291,247.035041 581.463914,243.901185 580.388297,244.412033 C578.9699,245.087433 580.560868,251.851257 583.941379,259.518889 C587.324255,267.184065 591.215389,272.854969 592.633785,272.177113 C593.342983,271.840641 593.300431,269.981449 592.657425,267.247921 C592.397385,266.145177 592.038058,264.895073 591.593628,263.551641 C597.123009,254.317081 614.746583,248.017441 628.793435,244.377649 C630.185827,246.961361 631.646775,249.520513 633.242471,252.028089 C638.28487,259.933953 644.097931,266.985129 650.480715,273.201265 C643.610948,291.336369 623.746308,308.275401 616.538491,313.990513 C610.869633,309.419897 606.231477,306.931969 605.16768,308.142777 C603.768196,309.744089 609.122642,317.173489 617.129489,324.737969 C625.133972,332.304905 632.760217,337.140769 634.159701,335.541913" id="Fill-18" fill="#A2AB3B" mask="url(#mask-2)"></path>
                    <path d="M815.585828,228.249097 C816.869477,230.260561 816.337578,232.974441 814.401467,234.308049 C812.462992,235.641657 809.853143,235.089057 808.569494,233.077593 C807.285845,231.063673 807.81538,228.352249 809.753855,227.018641 C811.69233,225.685033 814.302179,226.235177 815.585828,228.249097" id="Fill-19" fill="#CCD84D" mask="url(#mask-2)"></path>
                    <path d="M760.067669,105.929982 C758.228481,103.044182 758.987323,99.1587896 761.765016,97.2480216 C764.542709,95.3397096 768.282547,96.1280856 770.121734,99.0138856 C771.960922,101.89723 771.199716,105.782622 768.424387,107.69339 C765.646694,109.604158 761.904492,108.813326 760.067669,105.929982" id="Fill-20" fill="#CCD84D" mask="url(#mask-2)"></path>
                    <path d="M653.578256,143.713822 C649.391623,137.144022 659.998863,122.18207 677.27493,110.297486 C694.550997,98.4129024 711.949992,94.1026224 716.138989,100.672422 C720.325622,107.242222 709.718382,122.204174 692.439951,134.091214 C675.166248,145.975798 657.764889,150.283622 653.578256,143.713822" id="Fill-21" fill="#CCD84D" mask="url(#mask-2)"></path>
                    <path d="M771.050784,173.098143 C751.415451,154.990055 741.363749,133.446023 748.59757,124.980191 C755.831392,116.514359 777.613231,124.331807 797.248564,142.439895 C816.881533,160.550439 826.935599,182.092015 819.701778,190.557847 C812.467956,199.023679 790.686117,191.208687 771.050784,173.098143" id="Fill-22" fill="#CCD84D" mask="url(#mask-2)"></path>
                    <path d="M626.043874,186.866479 C623.285093,182.541463 624.424538,176.708463 628.589895,173.844767 C632.755252,170.978615 638.367374,172.164863 641.12379,176.489879 C643.882571,180.817351 642.740762,186.647895 638.577769,189.514047 C634.414776,192.377743 628.802654,191.193951 626.043874,186.866479" id="Fill-23" fill="#CCD84D" mask="url(#mask-2)"></path>
                    <path d="M664.669878,215.973763 C657.535345,197.779715 660.956044,179.133763 672.312671,174.327371 C683.666933,169.520979 698.657018,180.374043 705.791552,198.568091 C712.926085,216.762139 709.503022,235.408091 698.148759,240.214483 C686.792133,245.020875 671.804412,234.167811 664.669878,215.973763" id="Fill-24" fill="#CCD84D" mask="url(#mask-2)"></path>
                    <path d="M762.008035,241.084153 C773.792544,232.976897 788.212907,234.037889 794.215087,243.456649 C800.219631,252.875409 795.531832,267.083369 783.747322,275.190625 C771.962813,283.300337 757.54245,282.236889 751.54027,272.818129 C745.535726,263.399369 750.223525,249.191409 762.008035,241.084153" id="Fill-25" fill="#CCD84D" mask="url(#mask-2)"></path>
                    <path d="M673.644545,268.181692 C675.034573,259.428508 686.329736,254.071972 698.870723,256.223428 C711.414075,258.372428 720.453987,267.211572 719.063959,275.964756 C717.67393,284.720396 706.381132,290.074476 693.83778,287.925476 C681.294429,285.776476 672.254516,276.934876 673.644545,268.181692" id="Fill-26" fill="#CCD84D" mask="url(#mask-2)"></path>
                    <path d="M725.754061,970.588114 C726.134664,970.153402 725.598038,968.927858 724.423133,967.297074 C723.94797,966.638866 723.3617,965.909434 722.695053,965.140706 C723.813222,957.701482 733.02807,948.783746 741.138933,942.282714 C747.011094,946.602818 753.512077,949.78825 760.325107,951.770242 C763.332108,959.676106 759.336958,972.179602 757.885466,976.21481 C754.977753,975.917634 752.859615,976.10429 752.746143,976.762498 C752.597212,977.629466 755.994271,978.985178 760.332199,979.78829 C764.672492,980.591402 768.310679,980.542282 768.45961,979.672858 C768.532894,979.240602 767.722044,978.685546 766.348564,978.137858 C765.800117,977.919274 765.142927,977.703146 764.436093,977.496842 C762.091011,971.877514 765.128743,961.206194 768.010452,953.48453 C774.239575,954.444826 780.617631,954.415354 786.91531,953.37401 C792.468332,962.186138 793.586501,976.455498 793.808716,981.527138 C790.092518,982.740402 787.589049,984.12313 787.780532,984.987642 C788.035843,986.132138 792.882031,985.947938 798.607624,984.57749 C804.333217,983.207042 808.76807,981.168562 808.515122,980.024066 C808.387467,979.451818 807.113274,979.213586 805.153523,979.287266 C804.361585,979.316738 803.458539,979.400242 802.475118,979.532866 C797.338159,974.461226 795.496608,961.979834 794.926886,951.485346 C800.647751,949.707202 806.214956,947.047354 811.448839,943.444402 C812.815227,942.503754 814.117788,941.506618 815.389616,940.477554 C822.576158,943.50089 829.114965,952.565986 831.273291,955.798082 C829.382096,958.109178 828.323027,960.024858 828.779278,960.49641 C829.379732,961.117778 832.386732,958.988426 835.49302,955.741594 C838.601672,952.497218 840.634707,949.360906 840.034252,948.739538 C839.731661,948.430082 838.83098,948.808306 837.615887,949.66545 C837.12654,950.014202 836.582821,950.444002 836.010735,950.932746 C830.746121,949.834914 824.706116,942.535682 820.297268,936.056754 C825.521694,930.832842 829.717783,924.79845 832.824071,918.275314 C842.180759,919.66541 852.215913,925.721906 855.941567,928.153346 C854.785574,932.016634 854.449887,934.939274 855.244189,935.270834 C856.293802,935.705546 858.910743,931.461578 861.087982,925.79313 C863.26522,920.124682 864.180086,915.175842 863.130472,914.74113 C862.60803,914.522546 861.6908,915.475474 860.631731,917.189762 C860.206212,917.88481 859.752325,918.70757 859.296074,919.626114 C853.066951,920.962178 843.625159,916.629794 835.519024,911.759546 C838.563848,903.084954 839.802581,893.788994 839.114659,884.534786 C845.509262,881.803714 853.745417,881.506538 856.93208,881.504082 C857.683831,884.436546 858.596332,886.430818 859.227519,886.31293 C860.062008,886.15329 860.090376,882.373506 859.29371,877.869202 C858.497044,873.367354 857.175572,869.84545 856.341082,870.00509 C855.925019,870.083682 855.709896,871.068538 855.695712,872.598626 C855.690984,873.215082 855.721716,873.92241 855.783179,874.688682 C852.490136,877.984634 845.320143,879.197898 838.5473,879.531914 C837.344027,871.562194 834.69399,863.715274 830.486081,856.418498 C836.885413,850.47989 845.535266,846.285042 849.119081,844.691098 C851.516171,847.881442 853.639037,849.833962 854.352963,849.342762 C855.293833,848.694378 853.428642,844.04517 850.185242,838.953882 C846.941842,833.86505 843.547147,830.264554 842.606278,830.912938 C842.133479,831.23713 842.36515,832.560914 843.119264,834.439754 C843.42422,835.201114 843.819007,836.058258 844.284713,836.97189 C842.064923,842.392282 834.826374,847.424626 827.278142,851.38861 C821.822044,843.63993 814.975917,837.509754 807.337853,833.106146 C810.316486,824.991522 815.751307,817.390202 818.103481,814.312834 C821.673112,815.933794 824.434257,816.604282 824.8385,815.815906 C825.370398,814.784386 821.599828,811.61369 816.417954,808.737714 C811.233715,805.864194 806.600287,804.370946 806.068389,805.407378 C805.803621,805.925594 806.612107,806.976762 808.136883,808.256338 C808.753886,808.774554 809.491452,809.334522 810.31885,809.90677 C810.8342,815.639074 806.964342,823.412314 802.283634,830.50033 C793.430477,826.438106 783.761743,824.554354 774.078824,825.03573 C772.721891,818.519962 773.270338,811.142138 773.589477,808.135994 C776.478278,807.68409 778.487672,806.962026 778.442756,806.29645 C778.383657,805.419658 774.76911,804.97021 770.374445,805.296858 C765.977417,805.623506 762.462158,806.598538 762.523622,807.477786 C762.55199,807.91741 763.471583,808.246514 764.932532,808.428258 C765.521166,808.501938 766.199632,808.548602 766.94429,808.56825 C769.535228,812.070506 770.036394,818.831874 769.747987,825.41641 C761.925531,826.379162 754.185815,828.906386 746.951994,833.084042 C741.810308,825.767618 738.65674,816.086066 737.510203,812.139274 C740.824522,810.014834 742.928477,808.037754 742.538418,807.246922 C742.020703,806.203122 737.365999,807.617778 732.139209,810.402882 C726.912418,813.190442 723.092204,816.299738 723.607555,817.343538 C723.867594,817.86421 725.160699,817.770882 727.040074,817.20109 C727.80128,816.970226 728.65941,816.658314 729.579003,816.282546 C734.713598,819.281322 738.848223,827.818378 741.836312,836.377538 C734.124964,841.898626 727.96676,848.905594 723.503539,856.799178 C716.652685,854.694386 709.778191,848.900682 707.262901,846.628882 C708.551278,843.905178 709.125729,841.778282 708.572554,841.436898 C707.844444,840.98745 705.430806,843.816762 703.185012,847.756186 C700.936854,851.69561 699.705213,855.251898 700.435687,855.701346 C700.799742,855.924842 701.584588,855.33049 702.560918,854.185994 C702.950977,853.729178 703.376495,853.164298 703.81147,852.550298 C708.714394,852.292418 715.470688,856.899874 721.030802,861.635042 C717.881962,868.47009 715.922211,875.820898 715.215377,883.326434 C705.697937,884.578994 694.147463,881.150418 689.873363,879.713658 C690.083758,875.673538 689.717339,872.753354 688.866301,872.635466 C687.748132,872.480738 686.2139,877.260114 685.440874,883.311698 C684.667848,889.363282 684.949163,894.395626 686.067332,894.547898 C686.629963,894.624034 687.291881,893.469714 687.913612,891.536842 C688.164195,890.75829 688.405322,889.847114 688.632266,888.845066 C694.650994,885.804538 705.601014,887.94617 714.938789,890.829514 C715.080629,898.845898 716.659777,906.89421 719.758973,914.554474 C714.692934,920.839378 703.702727,924.191818 699.9227,925.19141 C698.50194,922.53893 697.145008,920.834466 696.561101,921.111994 C695.792803,921.480394 696.655661,925.152114 698.49012,929.315034 C700.326943,933.477954 702.440354,936.555322 703.211016,936.186922 C703.593983,936.005178 703.572707,934.995762 703.222836,933.509882 C703.08336,932.910618 702.887149,932.232762 702.646021,931.50333 C705.648294,926.490634 715.215377,923.069426 722.841621,921.097258 C723.595735,922.497178 724.387673,923.884818 725.257623,925.247898 C727.992764,929.540986 731.148695,933.36989 734.61431,936.744434 C730.883928,946.590538 720.099388,955.785802 716.189342,958.885274 C713.109058,956.40717 710.591405,955.053914 710.01459,955.712122 C709.255748,956.581546 712.161097,960.614298 716.508481,964.72073 C720.853502,968.829618 724.995219,971.457538 725.754061,970.588114" id="Fill-27" fill="#A2AB3B" mask="url(#mask-2)"></path>
                    <path d="M824.247738,912.339653 C824.945116,913.430117 824.656709,914.903717 823.604731,915.628237 C822.552754,916.352757 821.136722,916.053125 820.439344,914.957749 C819.741966,913.867285 820.030373,912.393685 821.08235,911.671621 C822.134327,910.947101 823.552724,911.246733 824.247738,912.339653" id="Fill-28" fill="#CCD84D" mask="url(#mask-2)"></path>
                    <path d="M794.107998,845.934325 C793.110393,844.367397 793.521728,842.257693 795.029956,841.221261 C796.53582,840.182373 798.568855,840.612173 799.56646,842.179101 C800.564065,843.743573 800.15273,845.855733 798.644502,846.892165 C797.136274,847.928597 795.105604,847.501253 794.107998,845.934325" id="Fill-29" fill="#CCD84D" mask="url(#mask-2)"></path>
                    <path d="M736.296292,866.445609 C734.02213,862.879497 739.783183,854.755049 749.161147,848.303137 C758.541474,841.851225 767.98563,839.513113 770.259792,843.079225 C772.533954,846.645337 766.772901,854.767329 757.394937,861.221697 C748.016973,867.673609 738.570454,870.011721 736.296292,866.445609" id="Fill-30" fill="#CCD84D" mask="url(#mask-2)"></path>
                    <path d="M796.65662,888.607325 C785.997372,878.775957 780.53891,867.078029 784.467868,862.482853 C788.394461,857.887677 800.219159,862.131645 810.878407,871.963013 C821.537655,881.794381 826.993753,893.487397 823.067159,898.085029 C819.140565,902.680205 807.315868,898.436237 796.65662,888.607325" id="Fill-31" fill="#CCD84D" mask="url(#mask-2)"></path>
                    <path d="M721.34805,889.873638 C719.851641,887.523246 720.468644,884.359918 722.730986,882.802814 C724.990964,881.248166 728.038152,881.891638 729.53456,884.239574 C731.033332,886.589966 730.413966,889.753294 728.151624,891.310398 C725.891646,892.865046 722.844458,892.221574 721.34805,889.873638" id="Fill-32" fill="#CCD84D" mask="url(#mask-2)"></path>
                    <path d="M742.318093,905.67456 C738.443508,895.798984 740.301607,885.675352 746.466903,883.06708 C752.632199,880.456352 760.769066,886.348296 764.641287,896.226328 C768.515873,906.10436 766.657774,916.225536 760.492478,918.833808 C754.329546,921.444536 746.190315,915.550136 742.318093,905.67456" id="Fill-33" fill="#CCD84D" mask="url(#mask-2)"></path>
                    <path d="M795.160685,919.307325 C801.560016,914.906173 809.3872,915.480877 812.647147,920.594269 C815.904731,925.707661 813.361073,933.421957 806.964106,937.823109 C800.567139,942.224261 792.737591,941.649557 789.477643,936.536165 C786.22006,931.422773 788.763717,923.708477 795.160685,919.307325" id="Fill-34" fill="#CCD84D" mask="url(#mask-2)"></path>
                    <path d="M747.189339,934.0168 C747.943453,929.26444 754.075653,926.358992 760.883956,927.525592 C767.694622,928.692192 772.602273,933.491216 771.848159,938.243576 C771.094045,942.995936 764.961845,945.90384 758.153543,944.734784 C751.342876,943.57064 746.435225,938.771616 747.189339,934.0168" id="Fill-35" fill="#CCD84D" mask="url(#mask-2)"></path>
                    <path d="M162.120481,862.034878 C161.482202,861.688582 160.20801,862.77659 158.661958,864.810158 C158.035499,865.632918 157.366489,866.617774 156.676203,867.718062 C147.508635,868.722566 133.948766,859.863774 123.603929,851.631262 C126.802412,842.718438 128.445388,833.375814 128.565952,824.028278 C136.936854,817.605838 153.04038,818.625078 158.286083,819.15803 C158.884173,822.969742 159.799039,825.614854 160.612253,825.546086 C161.685506,825.450302 162.17958,820.670926 161.716238,814.867398 C161.250531,809.06387 160.002342,804.43431 158.926725,804.527638 C158.390098,804.574302 157.997675,805.792478 157.7991,807.72535 C157.718724,808.496534 157.6809,809.405254 157.664352,810.37783 C151.782736,815.206326 138.159039,814.81091 128.083697,813.654134 C127.185379,805.384782 125.069605,797.25051 121.783653,789.546038 C130.393319,779.574678 146.912908,773.486254 152.839441,771.546014 C155.489478,775.898046 157.94094,778.643854 158.905449,778.115814 C160.174914,777.41831 158.375914,771.288134 154.881931,764.423614 C151.392677,757.559094 147.532275,752.558678 146.260446,753.256182 C145.624532,753.60739 145.759279,755.311854 146.485025,757.792414 C146.780525,758.78955 147.172947,759.91931 147.650474,761.130118 C143.326729,769.347894 129.161678,775.775246 116.930374,779.928342 C112.958864,773.20627 107.992113,766.963118 102.020665,761.45431 C100.462793,760.01755 98.855277,758.67903 97.2217573,757.394542 C98.4533981,747.226702 107.044152,735.914366 110.16226,732.102654 C113.514403,733.76291 116.12898,734.489886 116.535587,733.755542 C117.074578,732.785422 113.575867,729.639286 108.720223,726.728926 C103.862216,723.821022 99.4888274,722.249182 98.9498368,723.219302 C98.6827055,723.70559 99.4226356,724.734654 100.836304,726.004406 C101.40839,726.515254 102.091585,727.07031 102.859883,727.640102 C103.27831,734.725662 96.6142109,744.819822 90.389815,752.568502 C82.5011675,747.60247 73.9931536,744.21319 65.2581963,742.376102 C63.844528,729.973302 67.7380259,715.178358 69.3951856,709.625342 C74.3453887,709.84147 77.9150194,709.31343 78.0450391,708.191038 C78.2176107,706.707614 72.3430859,704.752638 64.9225092,703.82427 C57.5042965,702.893446 51.3508205,703.342894 51.1782489,704.823862 C51.0907811,705.565574 52.5186334,706.425174 54.8920833,707.216006 C55.8542288,707.535286 56.9771258,707.842286 58.2111306,708.127182 C61.8280412,715.644998 59.7855506,729.118614 56.6674427,741.059686 C45.4077399,740.003606 34.0061975,741.457558 23.2807574,745.360142 C17.9617712,738.08547 14.9216751,727.664662 13.8767898,723.59507 C17.1012775,721.676934 19.1650441,719.857038 18.815173,719.093222 C18.3541942,718.078894 13.8744258,719.274966 8.80602301,721.76535 C3.73762018,724.250822 0.00250988812,727.092414 0.46348869,728.104286 C0.692796095,728.610222 1.92916488,728.563558 3.73998418,728.079726 C4.47045828,727.885702 5.29785613,727.617998 6.18908181,727.286438 C11.1629249,730.417838 14.9405871,739.17839 17.5457083,747.720358 C8.51052378,751.858718 0.0923416547,757.80715 -7.16984748,765.563198 C-16.2877718,759.32987 -24.0771315,749.648318 -27.1290476,745.595918 C-24.1385954,741.491942 -22.5216236,738.144414 -23.3372015,737.390422 C-24.4104547,736.400654 -29.306286,740.303238 -34.2683091,746.106766 C-39.2303322,751.91275 -42.381536,757.421558 -41.3082828,758.413782 C-40.7692922,758.909894 -39.277612,758.180462 -37.2989492,756.60371 C-36.4999193,755.96515 -35.6157856,755.181686 -34.686736,754.290158 C-27.5498385,755.353606 -19.2285801,762.954926 -12.0727707,771.30287 C-19.4602515,780.800222 -24.4766465,791.545222 -27.1928754,802.737214 C-37.769384,801.58535 -48.537376,797.122798 -52.9462245,795.123614 C-52.1944745,790.037238 -52.3055822,786.291838 -53.3646514,786.033958 C-54.7641358,785.692574 -57.2841533,791.542766 -58.9933208,799.099878 C-60.7024884,806.65699 -60.9530717,813.062238 -59.5535874,813.403622 C-58.8562092,813.575542 -57.8751517,812.197726 -56.8562704,809.832598 C-56.4449354,808.874758 -56.0265085,807.747454 -55.6175376,806.507174 C-49.0054468,803.975038 -38.540046,806.379462 -28.6278197,810.043814 C-30.5426547,822.677478 -29.6112412,835.640246 -25.8808589,847.849022 C-33.147776,851.709854 -42.0576688,853.41923 -45.7171313,853.993934 C-47.1969915,850.449926 -48.7075835,848.119182 -49.4806095,848.394254 C-50.4994909,848.760198 -49.8493926,853.519926 -48.0291173,859.026278 C-46.206478,864.537542 -43.903948,868.705374 -42.8850667,868.341886 C-42.374444,868.160142 -42.2822482,866.880566 -42.5446516,864.955062 C-42.6510313,864.178966 -42.8165109,863.294806 -43.0363623,862.339422 C-39.7385909,857.886694 -31.9043152,855.035278 -24.0180317,853.254678 C-20.3254733,862.931318 -14.8055476,871.993958 -7.50080662,879.865438 C-14.4793165,888.82247 -24.9045294,896.008726 -29.1999062,898.761902 C-32.7955409,895.222806 -35.819089,893.184326 -36.6299389,893.940774 C-37.6961002,894.940366 -34.5047084,900.42707 -29.5001335,906.191302 C-24.4931945,911.955534 -19.5713593,915.818822 -18.502834,914.81923 C-17.9709354,914.318206 -18.50047,912.699702 -19.7912107,910.481934 C-20.3112893,909.585494 -20.9613876,908.59327 -21.7084097,907.539646 C-19.8384906,900.007094 -11.0846213,891.936678 -1.93123709,885.320214 C7.11576741,893.370982 17.4227806,898.943646 28.2167766,902.067678 C27.9661932,911.506086 23.3540412,922.177406 21.4888501,926.131566 C17.8435715,925.375118 15.1391626,925.335822 14.9169471,926.15367 C14.6238119,927.231854 18.7584372,929.388222 24.1530711,930.969886 C29.5477051,932.554006 34.1598571,932.964158 34.4529924,931.885974 C34.59956,931.34811 33.6374145,930.540086 31.9660708,929.668206 C31.2994246,929.319454 30.4909387,928.960878 29.6209889,928.604758 C27.7156099,922.427918 30.9590095,912.294462 34.7461276,903.646886 C43.8616879,905.434854 53.1994637,905.538006 62.310296,903.98827 C66.9035361,915.737774 66.6174928,931.60599 66.3149016,937.532318 C61.4639862,938.588398 58.1283909,940.007966 58.2655025,941.130358 C58.449894,942.611326 64.605734,943.011654 72.0192188,942.021886 C79.4303395,941.032118 85.2906803,939.030478 85.1086528,937.54951 C85.016457,936.807798 83.4325811,936.338702 80.9432956,936.176606 C79.9385982,936.11275 78.7826052,936.10047 77.5249605,936.139766 C71.9601189,929.442254 70.9175976,914.760286 71.2792887,901.893302 C80.7187162,899.093462 89.7278967,894.449166 97.7772958,887.989886 C106.869216,892.405774 114.426905,905.348894 116.840542,909.850742 C114.166865,912.532694 112.594809,914.816774 113.114888,915.472526 C113.800446,916.337038 117.861788,914.035766 122.187896,910.329662 C126.514005,906.626014 129.466633,902.922366 128.778711,902.06031 C128.435932,901.628054 127.251571,901.989086 125.608596,902.917454 C124.944313,903.293222 124.206747,903.764774 123.421901,904.312462 C116.511947,902.111886 109.33959,891.010766 104.512314,881.918654 C105.923619,880.49663 107.308919,879.027942 108.63512,877.47575 C112.821753,872.578486 116.320464,867.300542 119.180896,861.772086 C132.048115,863.319366 146.451929,874.088926 151.399769,878.072558 C149.468386,882.812638 148.692996,886.472078 149.659869,886.99275 C150.936426,887.68043 154.759004,882.650542 158.200979,875.759006 C161.64059,868.865014 163.397037,862.720102 162.120481,862.034878" id="Fill-36" fill="#A2AB3B" mask="url(#mask-2)"></path>
                    <path d="M61.0344485,755.266173 C62.1006097,754.018525 63.937433,753.905549 65.1359778,755.013205 C66.3368867,756.120861 66.4456304,758.029173 65.3794692,759.276821 C64.313308,760.522013 62.4764848,760.637445 61.2779399,759.527333 C60.077031,758.422133 59.9682873,756.513821 61.0344485,755.266173" id="Fill-37" fill="#CCD84D" mask="url(#mask-2)"></path>
                    <path d="M35.4541438,882.580055 C31.9767088,886.647191 20.4853347,881.943951 9.78826246,872.075743 C-0.911173738,862.202623 -6.76205854,850.905023 -3.28462357,846.835431 C0.192811394,842.765839 11.6841855,847.469079 22.3812577,857.342199 C33.0806939,867.210407 38.9315787,878.512919 35.4541438,882.580055" id="Fill-38" fill="#CCD84D" mask="url(#mask-2)"></path>
                    <path d="M41.9631645,798.255751 C33.8121136,815.081807 21.755745,825.868559 15.0349104,822.354023 C8.31407589,818.839487 9.47479688,802.352359 17.6258477,785.526303 C25.7768985,768.705159 37.8332672,757.913495 44.5541017,761.430487 C51.2749363,764.945023 50.1142153,781.429695 41.9631645,798.255751" id="Fill-39" fill="#CCD84D" mask="url(#mask-2)"></path>
                    <path d="M68.0559831,894.020594 C65.765273,896.70009 61.8174033,896.940778 59.24065,894.56337 C56.6615327,892.183506 56.4274973,888.081986 58.7158433,885.40249 C61.0089174,882.722994 64.9544231,882.482306 67.5335404,884.86217 C70.1126577,887.239578 70.3466931,891.341098 68.0559831,894.020594" id="Fill-40" fill="#CCD84D" mask="url(#mask-2)"></path>
                    <path d="M79.9047931,862.078104 C69.4819442,870.251672 56.9007688,871.184952 51.7992701,864.163248 C46.6977714,857.141544 51.0120601,844.82716 61.4349091,836.651136 C71.855394,828.480024 84.4389333,827.546744 89.540432,834.568448 C94.6395668,841.590152 90.327642,853.906992 79.9047931,862.078104" id="Fill-41" fill="#CCD84D" mask="url(#mask-2)"></path>
                    <path d="M78.7781136,790.139408 C71.4804646,783.407512 69.6081814,773.217568 74.5914805,767.387024 C79.5771435,761.554024 89.5366496,762.285912 96.8342987,769.017808 C104.131948,775.75216 106.004231,785.937192 101.018568,791.770192 C96.0329048,797.603192 86.0757626,796.871304 78.7781136,790.139408" id="Fill-42" fill="#CCD84D" mask="url(#mask-2)"></path>
                    <path d="M111.851097,846.600883 C105.9813,847.187867 100.539386,840.306155 99.6954404,831.228779 C98.8514946,822.151403 102.929384,814.316763 108.796817,813.727323 C114.668978,813.140339 120.110891,820.022051 120.952473,829.099427 C121.796419,838.176803 117.720894,846.013899 111.851097,846.600883" id="Fill-43" fill="#CCD84D" mask="url(#mask-2)"></path>
                    <path d="M538.348685,90.690256 C538.003542,90.840072 537.99645,91.724232 538.258853,93.038192 C538.365233,93.568688 538.518892,94.172864 538.710376,94.823704 C536.046155,98.935048 528.157507,101.58016 521.576148,103.107792 C519.235794,98.826984 516.216974,95.044744 512.687531,91.89124 C513.016126,86.306296 518.755904,80.006656 520.703835,78.022208 C522.356266,79.041448 523.670647,79.544928 523.914138,79.186352 C524.235641,78.712344 522.573754,76.92192 520.202668,75.185528 C517.831582,73.44668 515.649616,72.422528 515.328112,72.896536 C515.167361,73.134768 515.503048,73.699648 516.174422,74.424168 C516.441554,74.713976 516.777241,75.033256 517.14366,75.359904 C517.032552,79.387744 512.354208,84.871992 508.562362,88.641952 C505.106203,86.262088 501.300173,84.432368 497.264835,83.226472 C496.319238,76.364408 499.484626,67.532632 500.713902,64.44544 C503.255196,64.799104 505.118023,64.700864 505.236223,64.128616 C505.392246,63.372168 502.453802,62.077856 498.671412,61.235448 C494.891386,60.395496 491.699994,60.324272 491.54397,61.078264 C491.463594,61.456488 492.160973,61.969792 493.347698,62.49292 C493.827588,62.704136 494.390219,62.915352 495.009585,63.124112 C496.711661,67.635784 494.458775,75.610416 491.978945,82.0304 C488.092539,81.433592 484.059566,81.406576 479.969856,82.037768 C478.903695,82.199864 477.85881,82.418448 476.825745,82.664048 C473.353038,78.778656 471.889725,71.479424 471.468934,68.92764 C473.21829,68.097512 474.364827,67.262472 474.218259,66.847408 C474.026776,66.304632 471.662782,66.702504 468.937097,67.73648 C466.213776,68.770456 464.159465,70.052488 464.350949,70.595264 C464.447873,70.86788 465.086151,70.90472 466.041205,70.742624 C466.426536,70.678768 466.866238,70.580528 467.339037,70.455272 C470.182922,72.6362 471.823534,78.736904 472.712395,83.877312 C468.194803,85.478624 464.074362,87.858488 460.469271,90.84744 C455.263757,87.308344 450.90928,80.787664 449.339588,78.26044 C451.067667,76.290728 452.051089,74.645208 451.665758,74.217864 C451.157499,73.652984 448.457818,75.426216 445.637574,78.17448 C442.817329,80.922744 440.942682,83.609608 441.45094,84.172032 C441.706252,84.454472 442.507646,84.152384 443.599811,83.435232 C444.039514,83.145424 444.531224,82.784392 445.051303,82.371784 C449.122101,83.378744 453.590049,88.69844 457.1124,93.951824 C452.968319,98.24 449.734375,103.42216 447.658788,109.139728 C443.115192,108.913776 438.124801,106.705832 436.22415,105.784832 C436.562201,103.817576 436.555109,102.361168 436.146138,102.250648 C435.607148,102.103288 434.574082,104.350528 433.841244,107.2658 C433.106042,110.181072 432.947655,112.664088 433.489009,112.808992 C433.758504,112.882672 434.150927,112.359544 434.569354,111.45328 C434.737198,111.08488 434.909769,110.65508 435.077613,110.178616 C437.92859,109.1692 442.526558,110.522456 446.654091,112.28832 C445.230967,117.386976 444.70616,122.831928 445.254607,128.402136 C439.845789,130.089408 433.559929,130.084496 430.99736,129.993624 C430.425273,127.397632 429.682979,125.619488 429.125076,125.705448 C428.389874,125.818424 428.252763,129.131568 428.820121,133.107832 C429.389844,137.08164 430.444185,140.210584 431.181751,140.097608 C431.54817,140.04112 431.768022,139.183976 431.820029,137.845456 C431.843669,137.30268 431.838941,136.678856 431.805846,135.998544 C434.585902,133.412376 440.252396,132.506112 445.817237,132.331736 C446.989778,138.533136 449.424692,144.169656 452.795747,149.010432 C448.840785,152.98424 443.559623,155.941264 441.330377,157.093128 C439.637757,155.093944 438.172081,153.89296 437.720558,154.244168 C437.124832,154.708352 438.519588,157.689936 440.838666,160.907296 C443.157744,164.1222 445.519374,166.354704 446.1151,165.892976 C446.412964,165.659656 446.212024,164.7976 445.64703,163.59416 C445.417722,163.105416 445.126951,162.557728 444.7889,161.975656 C446.020541,158.412 450.415205,154.897464 455.110097,152.028856 C459.29673,157.014536 464.556616,160.94168 470.457145,163.45908 C469.516276,167.737432 467.209018,171.976488 466.211412,173.678496 C464.367497,173.11116 462.975105,172.958888 462.823809,173.36904 C462.622869,173.90936 464.658268,175.22332 467.367405,176.301504 C470.074178,177.382144 472.43108,177.819312 472.632019,177.276536 C472.731307,177.008832 472.272692,176.544648 471.452386,176.011696 C471.121427,175.798024 470.72664,175.574528 470.289302,175.34612 C469.684119,172.506984 471.201803,168.329328 473.140278,164.488144 C478.064477,166.182784 483.355096,166.919584 488.789917,166.524168 C489.891539,172.376816 489.17052,179.062048 488.797009,181.746456 C486.248624,182.053456 484.466173,182.620792 484.485085,183.20532 C484.513453,183.97896 487.669384,184.484896 491.53215,184.337536 C495.39728,184.190176 498.508296,183.446008 498.479928,182.674824 C498.465744,182.286776 497.671442,181.969952 496.39725,181.763648 C495.881899,181.680144 495.286173,181.618744 494.636074,181.574536 C492.380824,178.300688 492.208253,172.010872 492.723603,166.042792 C498.803795,164.986712 504.359181,162.592112 509.136813,159.180728 C512.656799,162.420192 515.200457,167.8676 516.089319,169.950288 C514.590546,171.202848 513.675681,172.303136 513.914444,172.666624 C514.228855,173.145544 516.42737,172.158232 518.824459,170.461136 C521.221549,168.76404 522.909441,167.000632 522.59503,166.519256 C522.439006,166.281024 521.810184,166.408736 520.921322,166.809064 C520.566723,166.968704 520.16248,167.182376 519.736961,167.420608 C516.744145,166.153312 513.954632,161.450072 511.909777,157.014536 C515.621248,153.851208 518.76536,150.039496 521.200273,145.768512 C527.214274,147.779976 533.176266,153.170896 535.33932,155.265864 C534.13132,157.616256 533.563961,159.460712 534.039124,159.777536 C534.665582,160.195056 536.864097,157.788176 538.949139,154.406264 C541.034182,151.021896 542.218543,147.942072 541.592084,147.524552 C541.277673,147.318248 540.570839,147.81436 539.684341,148.786936 C539.325014,149.17744 538.937319,149.651448 538.533076,150.181944 C534.126592,150.248256 528.174055,145.80044 523.379876,141.374728 C525.44837,136.5536 526.668191,131.29776 526.876222,125.835616 C531.585298,123.553992 539.038971,124.74024 541.558988,125.241264 C541.6961,127.235536 542.045971,128.642824 542.469126,128.64528 C543.027029,128.650192 543.497463,126.211384 543.521103,123.197872 C543.544743,120.18436 543.109768,117.738184 542.551866,117.733272 C542.272914,117.730816 542.015239,118.337448 541.82612,119.32476 C541.748108,119.722632 541.68428,120.18436 541.632272,120.68784 C538.495252,122.807368 531.873705,122.073024 526.795847,121.041504 C526.722563,119.985424 526.623275,118.929344 526.47198,117.865896 C525.992089,114.513456 525.138687,111.315744 523.977966,108.299776 C528.845429,103.510576 537.745866,101.155272 540.90889,100.43812 C542.079067,102.810616 543.218512,104.345616 543.738591,104.119664 C544.424149,103.822488 543.774051,100.575656 542.287098,96.867096 C540.797782,93.158536 539.036607,90.39308 538.348685,90.690256" id="Fill-44" fill="#A2AB3B" mask="url(#mask-2)"></path>
                    <path d="M463.987839,96.8722536 C463.867276,96.0175656 464.43227,95.2242776 465.25494,95.0965656 C466.07761,94.9713096 466.84118,95.5607496 466.964108,96.4129816 C467.084671,97.2676696 466.517313,98.0609576 465.697007,98.1886696 C464.874337,98.3139256 464.110767,97.7269416 463.987839,96.8722536" id="Fill-45" fill="#CCD84D" mask="url(#mask-2)"></path>
                    <path d="M464.127552,145.197246 C464.302487,146.420334 463.489273,147.557462 462.312004,147.739206 C461.134735,147.92095 460.040206,147.078542 459.865271,145.855454 C459.690335,144.632366 460.503549,143.492782 461.678454,143.311038 C462.855723,143.129294 463.952616,143.974158 464.127552,145.197246" id="Fill-46" fill="#CCD84D" mask="url(#mask-2)"></path>
                    <path d="M504.100796,149.722918 C504.497947,152.508022 498.883462,155.681174 491.559809,156.808478 C484.236156,157.938238 477.9763,156.594806 477.579149,153.809702 C477.181998,151.024598 482.796484,147.851446 490.120137,146.721686 C497.44379,145.594382 503.703645,146.937814 504.100796,149.722918" id="Fill-47" fill="#CCD84D" mask="url(#mask-2)"></path>
                    <path d="M474.066018,119.018251 C477.782216,127.967915 477.895688,136.522163 474.318965,138.123475 C470.744607,139.727243 464.832258,133.768987 461.118424,124.819323 C457.402225,115.869659 457.288754,107.315411 460.865476,105.714099 C464.439835,104.110331 470.34982,110.066131 474.066018,119.018251" id="Fill-48" fill="#CCD84D" mask="url(#mask-2)"></path>
                    <path d="M519.302932,140.087293 C519.565335,141.921925 518.345514,143.628845 516.581975,143.901461 C514.816071,144.174077 513.170732,142.906781 512.908328,141.072149 C512.648289,139.239973 513.86811,137.530597 515.631649,137.260437 C517.397553,136.987821 519.042892,138.252661 519.302932,140.087293" id="Fill-49" fill="#CCD84D" mask="url(#mask-2)"></path>
                    <path d="M511.045028,124.589687 C510.699885,131.599111 506.877307,137.098095 502.501555,136.867231 C498.123438,136.633911 494.854034,130.764071 495.196814,123.752191 C495.539593,116.742767 499.366899,111.246239 503.742651,111.477103 C508.118404,111.707967 511.387808,117.580263 511.045028,124.589687" id="Fill-50" fill="#CCD84D" mask="url(#mask-2)"></path>
                    <path d="M483.200018,101.147413 C478.204899,101.918597 473.692034,99.3054128 473.122312,95.3119568 C472.552589,91.3209568 476.138768,87.4576688 481.136251,86.6889408 C486.13137,85.9177568 490.644234,88.5309408 491.213957,92.5243968 C491.783679,96.5153968 488.197501,100.378685 483.200018,101.147413" id="Fill-51" fill="#CCD84D" mask="url(#mask-2)"></path>
                    <path d="M515.749849,106.280207 C514.024133,108.895847 509.589281,108.851639 505.842351,106.181967 C502.09542,103.512295 500.457173,99.2290312 502.182888,96.6133912 C503.910968,94.0002072 508.34582,94.0444152 512.09275,96.7116312 C515.839681,99.3813032 517.475565,103.667023 515.749849,106.280207" id="Fill-52" fill="#CCD84D" mask="url(#mask-2)"></path>
                    <path d="M286.241742,724.081604 C285.903691,724.228964 285.896599,725.098388 286.154274,726.387788 C286.25829,726.910916 286.407221,727.507724 286.596341,728.143828 C283.9794,732.186404 276.227864,734.784852 269.757613,736.287924 C267.457447,732.080796 264.48827,728.362412 261.020291,725.260484 C261.344158,719.771324 266.984648,713.58466 268.899483,711.63214 C270.525911,712.634188 271.814287,713.127844 272.055415,712.77418 C272.369826,712.309996 270.73867,710.549044 268.407772,708.842124 C266.079238,707.135204 263.932732,706.128244 263.618321,706.594884 C263.459933,706.828204 263.788528,707.38326 264.448082,708.0955 C264.71285,708.37794 265.041445,708.692308 265.400772,709.0165 C265.292028,712.975572 260.69406,718.366492 256.968406,722.067684 C253.571347,719.732028 249.829144,717.93178 245.862363,716.747988 C244.933313,710.003812 248.044329,701.321852 249.25233,698.288692 C251.751071,698.634988 253.583167,698.54166 253.699002,697.97678 C253.850298,697.232612 250.963861,695.96286 247.245299,695.135188 C243.531465,694.307516 240.392081,694.238748 240.240785,694.978004 C240.162773,695.351316 240.845968,695.854796 242.016145,696.370556 C242.486579,696.57686 243.03739,696.78562 243.6473,696.989468 C245.318644,701.422548 243.103582,709.2621 240.671032,715.571564 C236.848454,714.98458 232.884036,714.957564 228.865247,715.576476 C227.817998,715.738572 226.792024,715.952244 225.775507,716.192932 C222.364264,712.373852 220.924591,705.202332 220.510893,702.6923 C222.229516,701.876908 223.354777,701.056604 223.212938,700.651364 C223.023818,700.115956 220.702376,700.50646 218.023971,701.520788 C215.345566,702.540028 213.326715,703.7975 213.515835,704.332908 C213.610394,704.600612 214.239217,704.637452 215.177722,704.480268 C215.555961,704.413956 215.986208,704.318172 216.454279,704.192916 C219.24852,706.337004 220.860764,712.334556 221.733077,717.384092 C217.293497,718.960844 213.243975,721.298956 209.702713,724.236332 C204.584666,720.75618 200.303473,714.350932 198.762149,711.86546 C200.459497,709.930132 201.428734,708.311628 201.048131,707.891652 C200.546964,707.339052 197.894563,709.080356 195.123962,711.781956 C192.350998,714.483556 190.509446,717.1213 191.010613,717.676356 C191.258833,717.953884 192.048406,717.656708 193.119296,716.954292 C193.554271,716.66694 194.036525,716.313276 194.547148,715.90558 C198.54939,716.895348 202.939326,722.124172 206.402577,727.28914 C202.327052,731.50118 199.149844,736.59738 197.109717,742.216708 C192.644133,741.993212 187.74121,739.822108 185.871291,738.915844 C186.204614,736.982972 186.197522,735.55358 185.795643,735.445516 C185.263744,735.300612 184.249591,737.5061 183.528573,740.372252 C182.807554,743.238404 182.651531,745.677212 183.18343,745.822116 C183.448197,745.89334 183.833528,745.380036 184.244863,744.488508 C184.410342,744.127476 184.58055,743.702588 184.746029,743.235948 C187.544998,742.243724 192.067318,743.574876 196.123932,745.308812 C194.724448,750.321508 194.209097,755.673132 194.748087,761.147556 C189.429101,762.805356 183.254349,762.800444 180.736696,762.712028 C180.171701,760.157788 179.443591,758.411572 178.895145,758.495076 C178.171763,758.608052 178.039379,761.864708 178.594917,765.769748 C179.155184,769.674788 180.192977,772.7497 180.913995,772.63918 C181.27805,772.585148 181.49081,771.74274 181.545182,770.426324 C181.566458,769.893372 181.56173,769.279372 181.530998,768.61134 C184.261411,766.06938 189.83098,765.180308 195.298898,765.008388 C196.452527,771.10418 198.847253,776.64246 202.159208,781.399732 C198.272802,785.307228 193.081472,788.21022 190.890049,789.344892 C189.225798,787.377636 187.786126,786.201212 187.341695,786.545052 C186.757788,786.999412 188.128905,789.931876 190.407795,793.092748 C192.686685,796.25362 195.008127,798.446828 195.592033,797.992468 C195.885169,797.76406 195.688957,796.91674 195.133418,795.732948 C194.908839,795.254028 194.622796,794.716164 194.289473,794.143916 C195.499838,790.639204 199.818854,787.183612 204.43337,784.36658 C208.54672,789.268756 213.716774,793.124676 219.515651,795.600324 C218.59133,799.804996 216.324259,803.972828 215.343202,805.642908 C213.532383,805.085396 212.16363,804.93558 212.014699,805.338364 C211.818487,805.871316 213.816062,807.160716 216.477919,808.224164 C219.139776,809.2827 221.45649,809.7125 221.655066,809.182004 C221.751989,808.916756 221.300466,808.45994 220.494345,807.939268 C220.168113,807.728052 219.782782,807.507012 219.352536,807.283516 C218.756809,804.491044 220.246125,800.387068 222.153868,796.612196 C226.992964,798.277364 232.19375,799.001884 237.534012,798.613836 C238.616721,804.363332 237.909887,810.933132 237.53874,813.573332 C235.037635,813.87542 233.283551,814.432932 233.304827,815.007636 C233.330831,815.76654 236.432391,816.265108 240.231329,816.12266 C244.027903,815.977756 247.086911,815.243412 247.058544,814.486964 C247.04436,814.106284 246.264242,813.791916 245.011325,813.590524 C244.50543,813.509476 243.91916,813.448076 243.280881,813.406324 C241.063455,810.188964 240.893248,804.007212 241.401506,798.137372 C247.377683,797.10094 252.836145,794.748092 257.531036,791.395652 C260.991923,794.581084 263.490665,799.935164 264.365343,801.981012 C262.892574,803.211468 261.994257,804.292108 262.228292,804.650684 C262.535611,805.11978 264.696302,804.152116 267.053204,802.482036 C269.407741,800.814412 271.069629,799.080476 270.759946,798.61138 C270.603922,798.373148 269.989284,798.50086 269.114606,798.891364 C268.764735,799.048548 268.367584,799.257308 267.951521,799.49554 C265.010713,798.247892 262.266116,793.6257 260.256721,789.268756 C263.906728,786.157004 266.994104,782.409148 269.38883,778.2143 C275.298814,780.19138 281.159155,785.488972 283.284385,787.549556 C282.095297,789.85574 281.539758,791.67318 282.005465,791.98018 C282.622467,792.390332 284.783158,790.030116 286.83274,786.702236 C288.882323,783.379268 290.043044,780.348564 289.428405,779.940868 C289.121086,779.734564 288.426072,780.223308 287.553758,781.178692 C287.201523,781.564284 286.818556,782.030924 286.423769,782.551596 C282.092933,782.617908 276.242048,778.246228 271.530608,773.896652 C273.563643,769.159028 274.762188,763.991604 274.967855,758.620332 C279.594191,756.38046 286.920208,757.54706 289.397674,758.040716 C289.530057,759.998148 289.8752,761.383332 290.291263,761.385788 C290.83971,761.388244 291.303053,758.993644 291.324329,756.031708 C291.347968,753.069772 290.920086,750.662892 290.374003,750.65798 C290.09978,750.655524 289.846832,751.254788 289.660077,752.224908 C289.584429,752.615412 289.520601,753.069772 289.468593,753.565884 C286.385945,755.648572 279.87787,754.926508 274.887479,753.91218 C274.816559,752.875748 274.717272,751.83686 274.56834,750.790604 C274.097905,747.494652 273.258687,744.353428 272.119242,741.389036 C276.901602,736.68334 285.648379,734.364876 288.759395,733.66246 C289.908296,735.993204 291.026465,737.503644 291.539452,737.280148 C292.21319,736.99034 291.574912,733.79754 290.1116,730.152836 C288.650651,726.508132 286.91548,723.791796 286.241742,724.081604" id="Fill-53" fill="#A2AB3B" mask="url(#mask-2)"></path>
                    <path d="M213.158635,730.156766 C213.040436,729.31927 213.595974,728.538262 214.40446,728.413006 C215.210582,728.28775 215.962332,728.869822 216.082896,729.707318 C216.203459,730.544814 215.645557,731.328278 214.837071,731.451078 C214.030949,731.576334 213.279199,730.996718 213.158635,730.156766" id="Fill-54" fill="#CCD84D" mask="url(#mask-2)"></path>
                    <path d="M213.295983,777.653104 C213.466191,778.854088 212.667161,779.971568 211.511168,780.153312 C210.355175,780.330144 209.277194,779.500016 209.106986,778.299032 C208.934415,777.095592 209.733445,775.975656 210.889438,775.798824 C212.047795,775.621992 213.123412,776.45212 213.295983,777.653104" id="Fill-55" fill="#CCD84D" mask="url(#mask-2)"></path>
                    <path d="M252.582488,782.099692 C252.974911,784.838132 247.454985,787.957252 240.256624,789.064908 C233.058263,790.17502 226.907151,788.853692 226.517092,786.117708 C226.124669,783.379268 231.644594,780.260148 238.842956,779.152492 C246.038953,778.04238 252.190065,779.363708 252.582488,782.099692" id="Fill-56" fill="#CCD84D" mask="url(#mask-2)"></path>
                    <path d="M223.063769,751.922574 C226.713776,760.719966 226.824884,769.126854 223.311989,770.70115 C219.799094,772.275446 213.990761,766.420342 210.338391,757.62295 C206.68602,748.828014 206.574912,740.41867 210.090171,738.84683 C213.603066,737.270078 219.411399,743.127638 223.063769,751.922574" id="Fill-57" fill="#CCD84D" mask="url(#mask-2)"></path>
                    <path d="M267.523638,772.63083 C267.781314,774.433534 266.582769,776.113438 264.847597,776.378686 C263.112426,776.648846 261.497818,775.403654 261.240143,773.60095 C260.982467,771.79579 262.181012,770.118342 263.916184,769.850638 C265.651355,769.58539 267.265963,770.830582 267.523638,772.63083" id="Fill-58" fill="#CCD84D" mask="url(#mask-2)"></path>
                    <path d="M259.406629,757.398226 C259.068578,764.289762 255.309828,769.692962 251.009723,769.464554 C246.707254,769.236146 243.49695,763.467002 243.832638,756.577922 C244.170689,749.686386 247.929439,744.283186 252.229544,744.511594 C256.529649,744.740002 259.74468,750.50669 259.406629,757.398226" id="Fill-59" fill="#CCD84D" mask="url(#mask-2)"></path>
                    <path d="M232.040563,734.361192 C227.130548,735.11764 222.695696,732.548664 222.135429,728.623976 C221.575163,724.699288 225.102241,720.904768 230.012257,720.14832 C234.922272,719.391872 239.357124,721.958392 239.917391,725.885536 C240.477657,729.807768 236.950579,733.602288 232.040563,734.361192" id="Fill-60" fill="#CCD84D" mask="url(#mask-2)"></path>
                    <path d="M264.032019,739.405325 C262.334672,741.974301 257.975467,741.930093 254.292365,739.307085 C250.611626,736.684077 249.001746,732.474493 250.699094,729.905517 C252.394078,727.334085 256.753282,727.378293 260.436385,730.001301 C264.119487,732.624309 265.727003,736.833893 264.032019,739.405325" id="Fill-61" fill="#CCD84D" mask="url(#mask-2)"></path>
                    <path d="M1029.78707,337.591445 C1029.62869,337.505485 1029.30718,337.778101 1028.91713,338.291405 C1028.75874,338.497709 1028.59089,338.745765 1028.41832,339.023293 C1026.1087,339.276261 1022.69273,337.046213 1020.08761,334.973349 C1020.89373,332.728565 1021.30743,330.375717 1021.33816,328.022869 C1023.44448,326.404365 1027.50109,326.659789 1028.82257,326.794869 C1028.97386,327.755165 1029.20317,328.420741 1029.40884,328.403549 C1029.67833,328.378989 1029.80362,327.175549 1029.68542,325.714229 C1029.56959,324.252909 1029.25281,323.086309 1028.98332,323.110869 C1028.85093,323.120693 1028.75165,323.427693 1028.69964,323.916437 C1028.67836,324.110461 1028.66891,324.338869 1028.66418,324.584469 C1027.18432,325.797733 1023.75416,325.699493 1021.2176,325.409685 C1020.99065,323.324541 1020.45876,321.276237 1019.62899,319.335997 C1021.79914,316.825965 1025.95977,315.293421 1027.45145,314.804677 C1028.1181,315.900053 1028.73746,316.592645 1028.97859,316.460021 C1029.29773,316.283189 1028.84621,314.738365 1027.96444,313.011797 C1027.08503,311.282773 1026.11343,310.022845 1025.79429,310.199677 C1025.63354,310.285637 1025.669,310.717893 1025.85103,311.341717 C1025.92431,311.592229 1026.0236,311.877125 1026.14416,312.181669 C1025.05436,314.249621 1021.48709,315.870581 1018.40917,316.916837 C1017.4092,315.222197 1016.15629,313.650357 1014.65515,312.262717 C1014.26273,311.901685 1013.85612,311.565213 1013.44479,311.241021 C1013.75683,308.681869 1015.91989,305.830453 1016.70473,304.872613 C1017.54868,305.290133 1018.20823,305.471877 1018.30988,305.287677 C1018.44463,305.044533 1017.56286,304.251245 1016.34068,303.519357 C1015.11849,302.787469 1014.01687,302.389597 1013.87976,302.635197 C1013.8112,302.755541 1013.99796,303.015877 1014.35729,303.335157 C1014.49913,303.465325 1014.66933,303.605317 1014.86555,303.747765 C1014.96956,305.530821 1013.29113,308.075237 1011.7238,310.025301 C1009.73804,308.775197 1007.5939,307.920509 1005.39775,307.458781 C1005.03842,304.334749 1006.01948,300.608997 1006.43791,299.211533 C1007.68373,299.265565 1008.58205,299.132941 1008.61515,298.850501 C1008.6577,298.477189 1007.1802,297.985989 1005.31028,297.750213 C1003.44273,297.516893 1001.89195,297.629869 1001.85176,298.003181 C1001.82812,298.189837 1002.18745,298.405965 1002.78554,298.602445 C1003.02903,298.685949 1003.31034,298.762085 1003.62239,298.833309 C1004.53016,300.726885 1004.01954,304.121077 1003.23233,307.127221 C1000.39554,306.861973 997.528015,307.227917 994.82597,308.210317 C993.485585,306.378141 992.719651,303.755133 992.457248,302.728525 C993.268098,302.244693 993.788176,301.787877 993.700709,301.596309 C993.584873,301.340885 992.454884,301.640517 991.180691,302.269253 C989.904135,302.895533 988.960901,303.610229 989.079101,303.865653 C989.138201,303.990909 989.447884,303.981085 989.904135,303.858285 C990.088526,303.809165 990.296558,303.742853 990.521137,303.659349 C991.774054,304.447725 992.724379,306.653213 993.38157,308.804669 C991.105043,309.846013 988.984541,311.344173 987.157174,313.296693 C984.859372,311.727309 982.899621,309.290957 982.131323,308.269261 C982.883073,307.235285 983.28968,306.392877 983.086376,306.203765 C982.814517,305.953253 981.580512,306.938109 980.332323,308.396973 C979.084135,309.858293 978.289833,311.245933 978.559328,311.496445 C978.69644,311.621701 979.072315,311.439957 979.568753,311.042085 C979.772057,310.882445 979.994272,310.683509 980.225944,310.460013 C982.024943,310.727717 984.121806,312.640941 985.920805,314.743277 C984.060342,317.135421 982.797969,319.839477 982.114775,322.658965 C979.450554,322.369157 976.739053,321.246765 975.63034,320.743285 C975.819459,319.461253 975.791091,318.518149 975.52396,318.454293 C975.169361,318.365877 974.53581,319.839477 974.105564,321.742877 C973.677681,323.646277 973.611489,325.259869 973.966088,325.345829 C974.141024,325.387581 974.386879,325.041285 974.644554,324.444477 C974.74857,324.203789 974.85495,323.921349 974.956601,323.609437 C976.623217,322.970877 979.256706,323.575053 981.753084,324.498509 C981.270829,327.679029 981.504864,330.945509 982.445734,334.017965 C980.613639,334.990541 978.370209,335.422797 977.448251,335.567701 C977.077104,334.676173 976.696501,334.086733 976.502653,334.157957 C976.247342,334.248829 976.408094,335.447357 976.866708,336.834997 C977.327687,338.222637 977.906866,339.271349 978.162177,339.180477 C978.292197,339.133813 978.315837,338.812077 978.247281,338.328245 C978.223641,338.131765 978.178725,337.908269 978.124353,337.667581 C978.954115,336.547645 980.92805,335.830493 982.913805,335.381045 C983.842854,337.817397 985.232883,340.099021 987.074434,342.083469 C985.315622,344.338077 982.691589,346.148149 981.60888,346.840741 C980.70347,345.949213 979.942264,345.435909 979.738961,345.625021 C979.469466,345.877989 980.273224,347.260717 981.533232,348.712213 C982.793241,350.163709 984.034338,351.136285 984.303833,350.885773 C984.436217,350.758061 984.303833,350.350365 983.977602,349.792853 C983.845218,349.566901 983.684467,349.316389 983.495347,349.051141 C983.965782,347.155109 986.171388,345.121541 988.473918,343.456373 C990.752808,345.482573 993.350838,346.887405 996.067067,347.673325 C996.005603,350.050733 994.844882,352.737597 994.374447,353.732277 C993.454853,353.543165 992.774023,353.533341 992.717287,353.739645 C992.644003,354.009805 993.686525,354.552581 995.045821,354.952909 C996.402754,355.350781 997.563475,355.453933 997.636758,355.183773 C997.674582,355.046237 997.431091,354.842389 997.012664,354.623805 C996.842457,354.535389 996.641517,354.444517 996.421666,354.356101 C995.941775,352.798997 996.757353,350.247213 997.712406,348.071197 C1000.00784,348.520645 1002.35765,348.547661 1004.65309,348.157157 C1005.80909,351.116637 1005.73817,355.112549 1005.66252,356.603341 C1004.44033,356.871045 1003.60111,357.227165 1003.63421,357.509605 C1003.68149,357.882917 1005.23227,357.983613 1007.09746,357.735557 C1008.96502,357.485045 1010.44015,356.981565 1010.39523,356.608253 C1010.37159,356.421597 1009.97208,356.303709 1009.34798,356.264413 C1009.09267,356.247221 1008.8019,356.244765 1008.48513,356.254589 C1007.08328,354.567317 1006.82087,350.868581 1006.91307,347.629117 C1009.28888,346.924245 1011.55832,345.755189 1013.58426,344.129317 C1015.87497,345.239429 1017.77799,348.498541 1018.38553,349.633213 C1017.71416,350.308613 1017.31701,350.883317 1017.44703,351.047869 C1017.62196,351.266453 1018.64321,350.686837 1019.73301,349.753557 C1020.82281,348.820277 1021.56274,347.889453 1021.39253,347.670869 C1021.30506,347.562805 1021.0072,347.653677 1020.5935,347.886997 C1020.42566,347.980325 1020.24127,348.100669 1020.04269,348.238205 C1018.30279,347.685605 1016.4967,344.888221 1015.27924,342.599229 C1015.63621,342.240653 1015.98608,341.872253 1016.3194,341.479293 C1017.37374,340.248837 1018.25551,338.917685 1018.97653,337.525133 C1022.2152,337.915637 1025.84157,340.627061 1027.08739,341.631565 C1026.60041,342.825181 1026.40656,343.746181 1026.65006,343.876349 C1026.97156,344.050725 1027.93607,342.783429 1028.80129,341.047037 C1029.66651,339.313101 1030.11094,337.765821 1029.78707,337.591445" id="Fill-62" fill="#A2AB3B" mask="url(#mask-2)"></path>
                    <path d="M1004.33253,310.704876 C1004.59967,310.390508 1005.06301,310.361036 1005.3656,310.64102 C1005.66583,310.918548 1005.6942,311.399924 1005.42706,311.714292 C1005.15993,312.02866 1004.69423,312.055676 1004.39163,311.778148 C1004.08904,311.50062 1004.0654,311.019244 1004.33253,310.704876" id="Fill-63" fill="#CCD84D" mask="url(#mask-2)"></path>
                    <path d="M987.025026,325.859378 C986.639695,326.308826 985.977777,326.350578 985.542802,325.95025 C985.110191,325.552378 985.072368,324.862242 985.455335,324.412794 C985.840666,323.963346 986.502584,323.921594 986.937559,324.321922 C987.37017,324.72225 987.407993,325.40993 987.025026,325.859378" id="Fill-64" fill="#CCD84D" mask="url(#mask-2)"></path>
                    <path d="M997.891597,342.765991 C997.014555,343.790143 994.121027,342.606351 991.428438,340.118423 C988.733485,337.635407 987.258353,334.788903 988.135394,333.762295 C989.010072,332.738143 991.905965,333.924391 994.598554,336.409863 C997.291143,338.895335 998.766275,341.741839 997.891597,342.765991" id="Fill-65" fill="#CCD84D" mask="url(#mask-2)"></path>
                    <path d="M999.530554,321.530187 C997.476243,325.766787 994.440875,328.485579 992.748256,327.598963 C991.055636,326.714803 991.348771,322.561707 993.400718,318.325107 C995.452665,314.088507 998.490397,311.372171 1000.18065,312.256331 C1001.87327,313.140491 1001.5825,317.293587 999.530554,321.530187" id="Fill-66" fill="#CCD84D" mask="url(#mask-2)"></path>
                    <path d="M1006.1008,345.646634 C1005.52399,346.322034 1004.52875,346.383434 1003.88101,345.78417 C1003.23091,345.184906 1003.17181,344.15093 1003.74863,343.47553 C1004.32544,342.802586 1005.31832,342.741186 1005.96842,343.34045 C1006.61852,343.939714 1006.67762,344.971234 1006.1008,345.646634" id="Fill-67" fill="#CCD84D" mask="url(#mask-2)"></path>
                    <path d="M1009.08369,337.603479 C1006.45966,339.661607 1003.2919,339.897383 1002.00589,338.126607 C1000.72224,336.360743 1001.80968,333.258815 1004.43135,331.200687 C1007.05775,329.142559 1010.2255,328.906783 1011.50915,330.675103 C1012.79516,332.443423 1011.70772,335.545351 1009.08369,337.603479" id="Fill-68" fill="#CCD84D" mask="url(#mask-2)"></path>
                    <path d="M1008.79954,319.486795 C1006.96271,317.792155 1006.48992,315.225635 1007.74756,313.756947 C1009.00284,312.288259 1011.50867,312.472459 1013.34786,314.167099 C1015.18468,315.864195 1015.65512,318.428259 1014.39984,319.896947 C1013.14692,321.365635 1010.63636,321.181435 1008.79954,319.486795" id="Fill-69" fill="#CCD84D" mask="url(#mask-2)"></path>
                    <path d="M1017.12907,333.704825 C1015.65157,333.854641 1014.28046,332.120705 1014.0677,329.834169 C1013.85494,327.547633 1014.88328,325.575465 1016.36077,325.428105 C1017.83827,325.278289 1019.20938,327.012225 1019.42214,329.298761 C1019.6349,331.582841 1018.60657,333.557465 1017.12907,333.704825" id="Fill-70" fill="#CCD84D" mask="url(#mask-2)"></path>
                </g>
                <path d="M953.002939,107.899753 C946.570621,119.662072 943.147963,132.928328 942.393175,146.439066 C941.391537,164.404817 941.709593,193.443891 950.624643,219.894909 C964.832708,262.049598 996.142194,291.886326 1011.40174,269.166752 C1026.66129,246.447177 999.560105,185.95137 993.509928,145.164795 C986.543562,98.2093605 970.363077,76.1466778 953.002939,107.899753" id="Fill-72" fill="#FEFEFE"></path>
                <g id="Group-166" transform="translate(1166.000000, 383.000000)">
                    <path d="M92.1902923,192.831537 L78.0327167,186.061557 C78.0327167,186.061557 66.2840844,174.04951 63.6382735,173.894754 C52.8963285,173.265902 48.8837916,174.76925 53.7940566,178.660269 C57.5744633,181.654684 64.0196303,184.437843 48.0997598,180.217659 C48.0997598,180.217659 43.2889792,178.127219 40.9392527,176.243121 C38.5895263,174.359023 35.3207536,175.872197 35.2260066,177.837358 C35.1312595,179.802519 44.714922,185.72748 48.3579455,187.02203 C48.3579455,187.02203 40.8705611,185.206712 32.241475,177.69734 C32.241475,177.69734 30.2849487,176.515787 28.0868175,178.394973 C25.8886863,180.276614 27.5775522,182.236862 31.4716553,186.019798 C35.3681271,189.800276 47.6070753,195.00304 47.6070753,195.00304 C47.6070753,195.00304 37.582839,191.785089 28.5155478,185.125649 C25.2491438,182.728153 22.5914895,187.43717 25.9194791,190.492995 C29.2498374,193.548821 41.3561397,200.633227 46.4748482,202.053056 C51.5959254,203.470428 33.19842,196.594821 31.7393157,198.537874 C30.2778427,200.47847 33.8237504,203.770115 37.7770705,204.934473 C41.7280218,206.101287 57.3683885,210.616245 62.217068,210.965061 C65.0784284,211.168947 86.5646871,210.712047 89.9282068,209.844919 C93.0430156,201.630546 87.7821865,196.749577 92.1902923,192.831537" id="Fill-74" fill="#3773C1"></path>
                    <path d="M12.4556887,150.682025 L71.1443704,187.482123 C73.960726,188.95845 74.8584542,192.682431 73.0416798,195.357506 C71.5825754,197.504445 68.8396488,198.24138 66.5586139,197.09913 L3.64421447,169.672851 C0.887075768,168.289869 -0.11487412,164.740296 1.49108811,162.035743 L5.71680584,152.657012 C7.12853666,150.281624 10.05622,149.424322 12.4556887,150.682025" id="Fill-76" fill="#323232"></path>
                    <path d="M293.049031,557.534237 C293.150884,558.870547 296.149628,568.104348 299.434981,575.181384 C302.725072,582.255964 307.208975,591.239206 302.964308,596.488643 C300.621688,599.384799 282.250238,609.682243 261.185603,618.6139 C244.050602,625.87517 227.450922,621.419168 223.895539,620.507824 C215.965212,618.478795 210.571737,601.855989 226.295008,594.312227 C242.020647,586.763552 251.251377,590.632463 252.414397,582.000493 C253.577416,573.368523 252.066201,564.645664 252.066201,564.645664 L293.049031,557.534237 Z" id="Fill-78" fill="#323232"></path>
                    <path d="M263.819808,290.570298 C263.819808,290.570298 276.854631,322.838243 275.056806,350.610882 C273.256612,378.383521 275.506854,404.932847 274.606757,420.044936 C273.709029,435.157024 272.358884,451.494882 274.156709,458.43927 C275.954534,465.381202 298.878579,511.125239 302.024181,531.958403 C305.169782,552.786654 307.332383,557.279503 294.29756,560.954355 C281.265105,564.629206 249.356673,578.517982 239.948292,569.940054 C224.98063,556.29201 228.761036,547.886033 225.167755,516.025859 C221.569736,484.170598 204.041535,469.874051 204.041535,439.239646 C204.041535,408.610154 209.88269,378.793748 215.726213,359.596581 C221.569736,340.399413 239.097938,293.429607 241.34818,293.429607 C243.593684,293.429607 263.819808,290.570298 263.819808,290.570298" id="Fill-80" fill="#F4F5F4"></path>
                    <path d="M168.550007,571.483688 C168.223129,572.778238 168.123645,582.52298 168.985843,590.327126 C169.845672,598.133728 175.374162,608.91018 169.698814,612.422906 C164.025836,615.933175 87.2333643,621.912177 80.3902598,617.289136 C73.5471552,612.668551 73.7248059,595.129488 90.9687661,593.370669 C108.212726,591.609394 118.578052,588.474962 122.415307,580.724858 C126.25493,572.967384 127.595601,564.215048 127.595601,564.215048 L168.550007,571.483688 Z" id="Fill-82" fill="#323232"></path>
                    <path d="M152.122055,271.782375 C158.936736,274.978218 146.96071,339.00071 143.294,348.445765 C139.62729,357.890821 120.552343,413.291168 120.275208,424.733319 C119.995704,436.175469 113.29472,471.801383 114.111914,503.24396 C114.929107,534.684081 107.711751,562.965206 117.934956,573.041569 C128.16053,583.11302 168.162728,585.839681 176.062262,578.379438 C183.961796,570.919195 179.515791,485.201325 180.96779,466.800048 C182.419788,448.398771 198.44388,417.955969 211.106821,387.965155 C223.772131,357.97434 231.027385,364.000015 242.311757,360.821367 C274.213084,351.835668 281.672044,297.105932 263.819334,290.569315 C247.24334,284.504337 256.765417,271.747985 256.765417,271.747985 C256.765417,271.747985 150.428452,270.988941 152.122055,271.782375" id="Fill-84" fill="#F4F5F4"></path>
                    <path d="M176.063209,578.37821 C183.962743,570.920423 179.516739,485.200097 180.966369,466.79882 C182.420735,448.399999 198.442459,417.954741 211.107769,387.963926 C211.780473,386.36969 218.945717,374.301144 225.246395,371.034064 C242.710642,361.974671 261.951396,344.94655 263.055199,339.991888 C246.777659,345.710507 228.95811,355.180127 221.437564,363.954571 C206.742299,381.098145 199.626797,394.195944 195.839284,402.619115 C188.486914,418.956973 167.827324,459.220667 169.056666,461.296369 C177.524682,475.590459 169.582512,536.584146 166.16925,545.02697 C162.755989,553.467336 132.036631,546.387844 143.588663,551.833796 C155.143064,557.279749 182.186237,566.81078 167.74442,569.259862 C153.636586,571.654902 135.272243,580.237743 117.296361,572.259189 C117.51428,572.512204 117.699036,572.804522 117.935904,573.040341 C128.159109,583.114248 168.163676,585.838452 176.063209,578.37821" id="Fill-86" fill="#D0D0D0"></path>
                    <path d="M239.494691,292.470117 C209.445669,276.527748 202.616776,254.338623 185.164373,240.341763" id="Stroke-88" stroke="#323232" stroke-width="2" stroke-linecap="round" stroke-linejoin="round"></path>
                    <path d="M310.640476,134.983827 C309.176634,128.420189 306.815064,105.093727 302.504074,103.789352 C298.193084,102.484976 266.62811,105.585017 263.769118,111.659822 C260.907758,117.737082 268.759918,142.390028 268.759918,142.390028 L310.640476,134.983827 Z" id="Fill-90" fill="#DEA100"></path>
                    <path d="M310.057545,131.871258 C308.565279,123.015751 306.284244,104.933812 302.506206,103.789106 C301.378716,103.447659 298.389447,103.410812 294.547455,103.644175 C295.3078,106.854757 296.409234,112.062434 295.873914,113.310311 C295.234371,114.803834 276.374974,122.237056 265.002961,128.476442 C265.521701,130.773224 266.090183,133.008595 266.620767,134.993407 C277.919351,135.049906 297.747536,133.173177 310.057545,131.871258" id="Fill-92" fill="#DEA100"></path>
                    <path d="M258.117931,137.73407 C260.929549,130.246806 309.31686,121.769593 317.178495,129.78745 C325.177513,137.950238 338.141276,247.456383 335.621005,268.078292 C333.095997,288.700201 268.085319,280.80271 268.085319,280.80271 C268.085319,280.80271 252.26967,153.315341 258.117931,137.73407" id="Fill-94" fill="#FFC500"></path>
                    <path d="M266.577183,135.681951 C266.577183,135.681951 294.856804,134.163864 309.964219,137.133714 C309.964219,137.133714 324.652378,179.659799 324.233122,219.218492 C324.233122,219.218492 327.535056,174.147523 315.255841,132.591735 C315.255841,132.591735 306.993899,125.283792 266.577183,135.681951" id="Fill-96" fill="#FFD94E"></path>
                    <path d="M276.4683,248.402854 C278.979096,248.51585 318.479135,243.887896 318.479135,243.887896 L319.635049,249.933223 C319.635049,249.933223 281.198546,252.736034 276.148529,252.726234 L276.4683,248.402854 Z" id="Fill-98" fill="#323232"></path>
                    <path d="M277.125134,256.782055 C279.638299,256.895052 319.135969,252.269554 319.135969,252.269554 L320.294251,258.31488 C320.294251,258.31488 281.857748,261.117691 276.807731,261.107891 L277.125134,256.782055 Z" id="Fill-100" fill="#323232"></path>
                    <path d="M277.629425,264.705584 C280.14259,264.818581 319.64026,260.193083 319.64026,260.193083 L320.798542,266.23841 C320.798542,266.23841 282.362039,269.041221 277.312022,269.031421 L277.629425,264.705584 Z" id="Fill-102" fill="#323232"></path>
                    <path d="M158.02977,127.060298 C158.02977,127.060298 149.104599,260.649492 152.870794,270.079809 C156.639357,279.510125 150.144448,283.433078 149.365153,290.979297 C148.585859,298.525515 143.052632,309.854669 145.428414,322.837014 C148.313461,338.62954 222.881746,320.115266 245.201779,326.379217 C259.425677,330.370951 281.435413,322.837014 276.18169,310.038903 C274.038038,304.809118 275.41187,292.905155 270.084718,277.277211 C264.757566,261.649268 270.084718,233.761175 264.627289,220.692854 C259.16986,207.624533 260.861095,203.851424 255.792128,188.49369 C250.727899,173.133499 259.16986,170.844087 250.727899,149.018516 C242.281201,127.192946 238.818197,108.916948 232.538837,103.751031 C218.776831,92.4317031 205.216161,90.2331791 203.830486,90.5942774 C202.444811,90.9529193 193.436736,92.5692643 193.436736,92.5692643 L158.02977,127.060298 Z" id="Fill-104" fill="#F4F5F4"></path>
                    <path d="M196.696745,0.343272101 C196.696745,0.343272101 157.70834,3.01834763 153.378401,10.2034678 C149.048461,17.3861316 145.583089,38.0448875 145.583089,38.0448875 C145.583089,38.0448875 149.51509,61.8847479 152.030624,72.8675419 C152.445143,74.6877723 163.189456,93.4820817 172.721008,100.821958 C173.713483,101.585915 179.367512,122.858783 179.367512,122.858783 L228.728349,98.6086956 L227.446895,66.9376683 L227.671919,59.1040449 C228.166972,41.7737806 222.925093,24.6080986 212.152355,11.3506306 C207.481326,5.600078 202.156543,1.05073009 196.696745,0.343272101" id="Fill-106" fill="#F4F5F4"></path>
                    <path d="M219.816679,32.0287925 C219.816679,32.0287925 207.738801,47.8065795 206.86476,48.3691069 C205.993087,48.9291778 192.058167,55.1268046 192.058167,55.1268046 C192.058167,55.1268046 211.017049,50.4620034 214.508477,48.2192634 C217.999905,45.9765233 219.816679,32.0287925 219.816679,32.0287925" id="Fill-108" fill="#D0D0D0"></path>
                    <path d="M155.841587,66.6566503 C155.841587,66.6566503 151.213194,49.9969972 151.213194,41.5271529 C151.213194,33.0548522 156.824587,20.1339181 158.835593,18.6551344 C162.495197,15.9653201 184.713377,16.8324475 187.430248,42.3083045 C190.144751,67.7866179 186.883084,94.0460829 173.817468,93.1986072 C160.747115,92.3511315 155.841587,66.6566503 155.841587,66.6566503" id="Fill-110" fill="#FF7E5C"></path>
                    <path d="M264.368156,237.883838 L268.830741,274.096843 C268.830741,274.096843 254.12837,273.553968 235.2216,296.971318 C229.825756,303.655323 215.971371,308.32258 204.239319,311.127848 C190.58864,314.394928 173.785254,286.076957 173.785254,266.474475 C173.785254,246.86708 264.368156,237.883838 264.368156,237.883838" id="Fill-112" fill="#D0D0D0"></path>
                    <path d="M247.563111,262.661817 C247.563111,262.661817 257.442858,274.472435 269.257814,274.199769 L267.879244,261.502372 L252.28862,255.036992 L247.563111,262.661817 Z" id="Fill-114" fill="#323232"></path>
                    <path d="M164.620136,46.3968221 C164.553813,46.6080769 163.670297,56.2103453 163.123133,58.6790789 C162.580707,61.1502689 160.614706,75.5278787 166.254523,72.8675419 C170.747901,70.7500808 164.620136,46.3968221 164.620136,46.3968221" id="Fill-116" fill="#E2573A"></path>
                    <path d="M154.412091,68.2098645 C154.412091,68.2098645 160.333781,61.0100056 166.25547,59.3150541 C172.17716,57.6201027 188.106505,65.8811486 188.106505,65.8811486 C188.106505,65.8811486 190.228839,90.1140412 176.343661,93.5014876 C159.346043,97.6479775 154.412091,68.2098645 154.412091,68.2098645" id="Fill-118" fill="#3773C1"></path>
                    <path d="M176.014652,93.3644176 C188.814976,90.4387841 188.203858,72.1013747 188.139903,67.1639075 C184.006564,66.2697592 175.306418,64.5502432 175.306418,65.9504205 C175.306418,67.7853897 181.704211,79.787611 176.668406,82.4675994 C171.630233,85.1500443 164.010202,82.7500913 164.96241,87.9749634 C165.192172,89.2375794 165.241914,90.1759438 165.19454,90.8883147 C167.972997,93.0008628 171.769984,94.3371724 176.014652,93.3644176" id="Fill-120" fill="#3773C1"></path>
                    <path d="M165.642457,11.8795046 C165.642457,11.8795046 175.988833,14.1369834 179.800033,17.5268863 C183.611232,20.9143327 187.969596,24.0192872 188.239625,25.1492548 C188.512022,26.2792224 189.056818,30.7966365 189.056818,32.209096 C189.056818,33.6215555 191.508397,43.2213674 191.508397,43.2213674 C191.508397,43.2213674 190.691204,25.7142386 190.691204,24.584271 C190.691204,23.4543034 186.062811,17.666904 185.245618,17.3844121 C184.428425,17.1019202 177.895617,13.8544915 177.895617,13.8544915 L165.642457,11.8795046 Z" id="Fill-122" fill="#D0D0D0"></path>
                    <path d="M223.5824,79.0300414 L236.01558,97.7015281 C236.01558,97.7015281 256.845715,103.331715 263.15113,105.495848 C269.456546,107.659982 285.274563,140.301308 288.479381,168.614366 C291.686569,196.924968 294.642676,231.499521 294.6711,245.658506 C294.697156,259.819948 245.222623,264.506857 225.439442,289.371058 C195.056437,327.556594 174.155241,265.167643 182.305855,252.430943 C203.247318,219.71101 247.408911,244.671013 242.304414,187.226898 C240.281565,164.426116 252.5442,142.229622 240.622654,132.907389 C208.673954,107.925279 223.5824,79.0300414 223.5824,79.0300414" id="Fill-124" fill="#F4F5F4"></path>
                    <path d="M188.487151,100.376358 C188.487151,100.376358 168.531057,109.089391 163.279703,113.990011 C158.030717,118.893088 147.002162,126.515457 145.426993,135.773822 C143.851823,145.032187 142.8025,183.151399 139.652161,191.321557 C136.499453,199.489257 120.664855,191.1668 118.547259,191.218386 C116.429663,191.269971 99.4794185,185.602938 93.4392951,186.14827 C87.4015403,186.693602 81.3614169,179.068777 76.3729855,201.66813 C71.3845541,224.269939 75.5865851,222.906608 78.474001,226.991687 C81.3614169,231.076765 110.768528,244.430035 125.73619,243.884703 C140.701484,243.341827 159.342963,248.500375 165.120164,239.517132 C170.894996,230.531433 186.386136,158.373175 186.386136,158.373175 L188.487151,100.376358 Z" id="Fill-126" fill="#F4F5F4"></path>
                    <path d="M150.80365,244.518958 C150.80365,244.518958 152.326709,209.39416 153.338133,198.774921 C154.351927,188.155682 155.872616,159.565045 155.872616,159.565045 L156.377144,145.678725 C156.377144,145.678725 157.895466,165.283663 157.388569,184.07306 C156.881672,202.86 152.831237,230.497534 152.831237,241.932315 C152.831237,253.369553 151.945352,257.931183 152.07326,263.85123 C152.201169,269.773735 153.634218,276.737774 153.466042,275.968905 C153.023099,273.959528 151.059467,269.503525 151.315284,260.313941 C151.566364,251.1219 150.80365,244.518958 150.80365,244.518958" id="Fill-128" fill="#D0D0D0"></path>
                    <path d="M309.659844,154.766121 C309.659844,160.855664 304.896437,165.793131 299.024489,165.793131 C293.152542,165.793131 288.391504,160.855664 288.391504,154.766121 C288.391504,148.676578 293.152542,143.739111 299.024489,143.739111 C304.896437,143.739111 309.659844,148.676578 309.659844,154.766121" id="Fill-130" fill="#323232"></path>
                    <path d="M302.023944,531.95742 C300.99357,525.135855 297.836125,515.639214 294.001239,505.710237 C280.838507,496.125164 242.188823,498.86902 233.647378,470.691067 C224.371643,440.093509 259.648333,448.501942 254.126949,418.410413 C252.303069,408.474067 235.86209,366.851955 235.177542,357.230035 C227.349069,363.002696 216.268403,378.323583 208.439929,384.103613 C204.199999,402.219942 204.041298,415.735337 204.041298,439.24112 C204.041298,469.875525 221.569499,484.169616 225.167518,516.027333 C228.760799,547.885051 224.980393,556.291027 239.948055,569.941527 C249.356436,578.516999 281.264868,564.63068 294.297323,560.955828 C307.332146,557.280977 305.169545,552.785671 302.023944,531.95742" id="Fill-132" fill="#D0D0D0"></path>
                    <path d="M305.447628,154.766121 C305.447628,158.443429 302.572055,161.425561 299.023779,161.425561 C295.477871,161.425561 292.602299,158.443429 292.602299,154.766121 C292.602299,151.088814 295.477871,148.106682 299.023779,148.106682 C302.572055,148.106682 305.447628,151.088814 305.447628,154.766121" id="Fill-134" fill="#FFFFFF"></path>
                    <path d="M56.6163339,173.963289 C56.6163339,173.963289 45.3603862,174.82796 46.9663484,177.63814 C48.5438866,180.396735 52.2840258,182.130989 55.533849,182.030275 C58.7813036,181.927104 63.3102119,181.315448 63.7057807,181.315448 C64.0989809,181.315448 66.6571509,181.826389 66.6571509,181.826389 L56.6163339,173.963289 Z" id="Fill-136" fill="#3773C1"></path>
                    <path d="M299.023779,154.766121 C299.023779,154.766121 304.592536,200.468399 309.789411,233.254655 C316.156411,273.415178 271.850329,317.732017 231.284387,287.100069" id="Stroke-138" stroke="#323232" stroke-width="2" stroke-linecap="round" stroke-linejoin="round"></path>
                    <path d="M185.163188,240.3425 C182.668973,238.342948 179.961576,236.510436 176.934408,234.886721 C146.477974,218.548863 127.703849,254.218993 158.423207,271.782621 C181.785457,285.138347 252.15171,473.61449 189.538133,504.998112 C95.0137539,552.378146 130.460988,231.346975 69.8110428,192.955097" id="Stroke-140" stroke="#323232" stroke-width="2" stroke-linecap="round" stroke-linejoin="round"></path>
                    <path d="M180.37041,257.300366 L172.430608,259.199203 C172.430608,259.199203 149.840547,254.507381 148.656209,256.963832 C147.469502,259.42274 149.840547,264.748327 154.582636,265.158554 C159.322356,265.568781 160.902263,267.617462 146.285164,275.401956 C146.285164,275.401956 141.346475,277.14358 138.383261,277.349922 C135.420048,277.553807 133.937257,280.933885 135.123963,282.469167 C136.308301,284.006905 147.272902,281.855054 150.828284,280.319772 C150.828284,280.319772 144.063346,284.110076 132.802661,284.417133 C132.802661,284.417133 130.578474,284.878945 130.135532,287.79721 C129.690221,290.71793 132.210492,291.024987 137.54475,291.177287 C142.879008,291.332043 155.366667,286.814629 155.366667,286.814629 C155.366667,286.814629 145.806692,291.29274 134.759187,292.543074 C130.779812,292.990148 131.80308,298.342755 136.246716,298.342755 C140.69272,298.342755 154.284182,295.323777 159.026272,292.867325 C163.768361,290.410874 146.581249,300.703405 146.730475,303.162313 C146.877333,305.621221 150.285858,304.542838 153.988098,302.7005 C157.695076,300.855705 172.658001,291.791399 176.509468,288.718379 C178.781028,286.905518 181.777403,283.149604 183.741035,280.18958 C180.822827,271.8966 179.572166,263.267086 180.37041,257.300366" id="Fill-142" fill="#3773C1"></path>
                    <path d="M252.945691,102.282319 C252.945691,102.282319 223.14538,112.901558 215.79301,124.881671 C208.44064,136.864241 233.648088,221.818154 233.648088,221.818154 L221.044364,223.997027 C221.044364,223.997027 200.038947,157.557387 203.189285,136.864241 C206.339624,116.168638 208.04744,115.353096 214.743686,110.042248 C221.437564,104.733857 241.130735,97.7894691 241.130735,97.7894691 C241.130735,97.7894691 252.55249,99.6956754 252.945691,102.282319" id="Fill-144" fill="#323232"></path>
                    <path d="M221.831475,142.30872 C221.831475,142.30872 236.010369,174.166437 242.311047,187.237215 C248.614093,200.305536 245.987231,214.194312 245.200831,217.461392 C244.412062,220.728473 197.768097,234.322474 192.424364,237.884329 C185.071994,242.784949 180.872332,256.057156 180.872332,256.057156 C180.872332,256.057156 184.81144,239.517869 190.325717,236.250789 C195.837626,232.983708 234.172276,218.822266 238.897785,213.103648 C243.623293,207.387485 232.86003,197.038456 231.28486,181.518596 C229.709691,165.998736 221.831475,142.30872 221.831475,142.30872" id="Fill-146" fill="#D0D0D0"></path>
                    <path d="M173.78478,107.455605 C173.78478,107.455605 157.504871,125.972335 157.504871,138.497781 C157.504871,151.023226 156.979025,202.213216 156.979025,202.213216 L151.727671,233.798268 L150.678347,165.182212 C150.678347,165.182212 146.478685,129.782292 149.103178,125.972335 C151.727671,122.159923 162.230379,107.455605 173.78478,107.455605" id="Fill-148" fill="#323232"></path>
                    <path d="M195.641737,74.9172049 C195.641737,74.9172049 194.066567,87.9879826 191.112828,93.5002594 C188.15909,99.0149927 180.283242,103.915613 179.691073,104.733611 C179.101273,105.549153 189.537659,102.6923 194.459767,101.056304 C199.381876,99.4227636 191.506029,111.879428 198.988676,106.978808 C206.471323,102.078188 218.878447,92.0706047 218.681847,94.3182577 C218.485247,96.5659107 228.263141,85.944215 228.263141,85.944215 C228.263141,85.944215 215.991031,91.4589483 208.835261,92.7510417 C202.731184,93.8539884 195.054305,97.7228993 194.789013,97.9267847 C194.789013,97.9267847 199.251599,82.8122396 195.641737,74.9172049" id="Fill-150" fill="#D0D0D0"></path>
                    <path d="M185.468511,36.932115 C186.648111,36.932115 209.88719,33.6650347 211.069159,33.3923686 C212.24876,33.1197025 222.3559,28.8995191 222.3559,28.8995191 L223.014392,30.6706205 C223.014392,30.6706205 214.480053,35.7063458 211.985837,36.6594489 C209.49399,37.6125521 186.254911,44.2842739 186.254911,44.2842739 L185.468511,36.932115 Z" id="Fill-152" fill="#323232"></path>
                    <path d="M180.872332,54.3586722 L209.493042,58.7164169 L227.871598,54.6313383 L227.871598,56.2648785 C227.871598,56.2648785 215.530797,60.3499571 212.903936,60.6226232 C210.279443,60.8952893 190.325717,62.8014955 186.647164,60.6226232 C182.973348,58.4437508 177.196147,53.2704643 179.036608,53.81334 L180.872332,54.3586722 Z" id="Fill-154" fill="#323232"></path>
                    <path d="M150.445033,35.2541131 C150.445033,35.2541131 154.784447,35.7208389 167.376328,33.8539358 C179.970577,31.9894893 184.416582,29.1350928 186.849212,32.5397344 C189.281842,35.939463 195.949665,55.5837045 189.281842,65.7902599 C182.616388,75.9968153 168.224314,61.4005813 162.297887,64.3262149 C156.37146,67.2518484 152.702381,70.1799385 152.141005,64.9133068 C151.574891,59.6442186 138.87642,36.9097613 150.445033,35.2541131" id="Fill-156" fill="#323232"></path>
                    <path d="M150.537411,37.2487516 C150.537411,37.2487516 154.2965,37.6540661 165.208989,36.0352646 C176.123848,34.4189196 179.975315,31.9477296 182.083436,34.8954712 C184.191558,37.8432128 189.968758,54.8664207 184.191558,63.712102 C178.416726,72.5577834 165.943279,59.9070589 160.807989,62.4445731 C155.6727,64.9796309 152.491569,67.5171452 152.003621,62.9506021 C151.513305,58.3865155 140.510806,38.6833192 150.537411,37.2487516" id="Fill-158" fill="#BCAB9E"></path>
                    <path d="M186.849449,32.5372779 C184.416819,29.1350928 179.970814,31.9894893 167.376565,33.8539358 C154.784684,35.7208389 150.445269,35.2541131 150.445269,35.2541131 C146.368778,35.8362921 145.312349,39.0419611 145.66765,43.1737123 C148.112124,42.960001 151.238776,42.606272 155.168409,42.024093 C167.76029,40.15719 172.203926,37.3027935 174.641293,40.7074351 C176.720991,43.6158735 181.865755,58.3791462 179.160727,68.9836467 C183.059567,69.9637707 186.735752,69.6911046 189.282079,65.7902599 C195.949901,55.5837045 189.282079,35.939463 186.849449,32.5372779" id="Fill-160" fill="#323232"></path>
                    <path d="M172.0592,65.3623461 C176.007782,57.0005857 180.529585,46.4624093 183.196714,37.0443749 C182.779827,36.0839024 182.391364,35.3248589 182.083436,34.8949799 C180.489317,32.6669785 177.895617,33.5341059 172.014195,34.7893525 C169.797114,41.5986357 166.073556,52.7386426 159.8771,62.9108076 C160.18029,62.7560512 160.490587,62.5988383 160.807989,62.4440819 C163.335367,61.1937481 167.646357,63.625635 172.0592,65.3623461" id="Fill-162" fill="#F4F5F4"></path>
                    <path d="M184.045884,39.2121932 C181.897495,45.7954828 178.401329,56.0462543 172.778093,65.6313275 C174.684877,66.3412419 176.589292,66.8595532 178.365799,66.869379 C181.061352,61.715744 183.993773,55.6679608 186.442984,49.5538534 C186.00241,45.6923118 185.028884,41.9904397 184.045884,39.2121932" id="Fill-164" fill="#F4F5F4"></path>
                </g>
            </g>
        </g>
    </g>
</svg>